<?xml version="1.0" encoding="utf-8"?>
<!-- Generator: Adobe Illustrator 12.0.0, SVG Export Plug-In . SVG Version: 6.00 Build 51448)  -->
<!DOCTYPE svg PUBLIC "-//W3C//DTD SVG 1.1//EN" "http://www.w3.org/Graphics/SVG/1.1/DTD/svg11.dtd" [
	<!ENTITY ns_svg "http://www.w3.org/2000/svg">
	<!ENTITY ns_xlink "http://www.w3.org/1999/xlink">
]>
<svg  version="1.1" id="Layer_1" xmlns="&ns_svg;" xmlns:xlink="&ns_xlink;" width="500" height="700" viewBox="0 0 500 700"
	 overflow="visible" enable-background="new 0 0 500 700" xml:space="preserve">
<rect fill="#FFFFFF" width="500" height="700"/>
<path fill="#FBF3E9" d="M431.14,227.544h-69.164v156.567h78.44v5.243C444.289,331.381,441.287,276.238,431.14,227.544z
	 M71.861,384.111h7.781l0.455-5.789l39.917-0.552V227.544H81.819C73.551,277.171,71.102,331.546,71.861,384.111z M220.472,39.569
	c-42.212,4.88-73.132,28.009-95.491,62.55v117.839h232.027V80.37C322.443,48.722,277.092,33.023,220.472,39.569z M361.976,429.385
	l74.593,1.114c1.632-13.625,2.901-27.145,3.806-40.516h-78.398V429.385z M361.976,85.096v134.862h67.518
	C416.819,164.109,394.454,117.254,361.976,85.096z M120.013,219.958V110.201c-17.609,30.292-29.371,68.204-36.875,109.757H120.013z
	 M124.981,377.702l17.745-0.245l-0.108,6.654h214.39V227.544H124.981V377.702z M73.077,425.068l3.344,0.05l2.76-35.135h-7.22
	C72.186,401.808,72.566,413.528,73.077,425.068z M141.938,426.097l215.069,3.214v-39.327H142.523L141.938,426.097z"/>
<polygon fill="#FFFFFF" points="177.41,281.555 431.745,262.769 427.41,281.555 "/>
<polygon fill="#F6E7D6" points="120.013,489.647 124.981,489.647 124.981,453.224 120.013,453.334 "/>
<path fill="#F6E7D6" d="M361.976,429.385l-4.968-0.074l-215.069-3.214l-0.031,1.923l0.239-0.005l-0.247,0.483l-0.014,0.865
	l-0.422-0.011l-1.609,3.15l-0.369,27.569l-4.22-0.056l0.254-19.026l-5.87,11.492l-0.407,30.487l-4.22-0.056l0.396-29.7l-0.438,0.01
	v36.424h-4.968v-36.313L83.2,454.152l-0.175,13.157l-4.219-0.057l0.173-13.007l-4.321,0.096
	c5.784,91.182,18.381,166.043,21.498,183.636c7.855-18.742,70.524-33.346,146.676-33.346c70.205,0,128.952,12.412,143.854,29.036
	c25.105-66.746,41.862-136.224,49.881-203.169L361.976,429.385z"/>
<path fill="#F6E7D6" d="M80.589,219.958v7.586h1.229c0.423-2.542,0.865-5.07,1.319-7.586H80.589z"/>
<path fill="#F6E7D6" d="M361.976,384.111V227.544h69.164c-0.53-2.545-1.076-5.077-1.646-7.586h-67.518V85.096
	c-1.63-1.613-3.287-3.187-4.968-4.726v139.588H124.981V102.119c-1.703,2.631-3.363,5.321-4.968,8.082v109.757H83.138
	c-0.455,2.517-0.896,5.044-1.319,7.586h38.194v150.226l4.968-0.068V227.544h232.027v156.567h-214.39l-0.095,5.872h214.484v39.327
	l4.968,0.074v-39.401h78.44v-5.872H361.976z M71.961,389.983h7.22l0.461-5.872h-7.781C71.89,386.071,71.924,388.028,71.961,389.983z
	"/>
<path fill="#E5D3BD" stroke="#E5D3BD" d="M242.833,679.285c19.729,0,38.548-0.982,55.749-2.761l-124.74-1.567
	C194.431,677.719,217.907,679.285,242.833,679.285z"/>
<path fill="#E5D3BD" stroke="#E5D3BD" d="M384.081,652.746c4.068-3.415,6.265-7.036,6.265-10.787c0-1.827-0.529-3.623-1.532-5.381
	L384.081,652.746z"/>
<path fill="#E5D3BD" stroke="#E5D3BD" d="M386.688,633.668c-1.517,4.031-3.059,8.055-4.636,12.065l-285.185-3.826
	c0,0-0.255-1.362-0.71-3.93c-0.548,1.308-0.836,2.636-0.836,3.981c0,14.308,31.819,26.732,78.522,32.998l124.74,1.567
	c40.903-4.229,72.623-12.969,85.499-23.778l4.732-16.168C388.253,635.596,387.545,634.625,386.688,633.668z"/>
<path fill="#E5D3BD" d="M68.876,444.964l0.393-0.919l-0.38-0.005L68.876,444.964z M124.981,377.702l-4.968,0.068l-39.917,0.552
	l-0.455,5.789l-0.461,5.872l-2.76,35.135l-3.344-0.05c0.134,3.033,0.279,6.053,0.43,9.061c0.343,6.814,0.729,13.557,1.152,20.213
	l4.321-0.096l-0.173,13.007l4.219,0.057l0.175-13.157l36.813-0.818l4.968-0.11l0.438-0.01l-0.396,29.7l4.22,0.056l0.407-30.487
	l5.87-11.492l-0.254,19.026l4.22,0.056l0.369-27.569l1.609-3.15l0.422,0.011l0.014-0.865l0.247-0.483l-0.239,0.005l0.031-1.923
	l0.585-36.113l0.095-5.872l0.108-6.654L124.981,377.702z"/>
<path fill="#F6E7D6" d="M170.26,264.402l-6.169,11.516c0,0-7.992-1.512-20.219-2.344c5.307-4.684,14.686-13.695,8.293-13.695
	c-6.762,0-22.596,9.325-29.153,13.375c-17.23,1.403-26.779,9.244-26.779,9.244c3.29,7.814,76.083,1.234,76.083,1.234l5.347-14.806
	L170.26,264.402z"/>
<g>
	<polygon fill="#E5D3BD" points="351.744,448.461 362.161,423.318 426.704,421.882 414.27,446.999 	"/>
	
		<rect x="410.369" y="435.451" transform="matrix(0.9999 0.0131 -0.0131 0.9999 6.0282 -5.3789)" fill="#E5D3BD" width="4.088" height="41.366"/>
	
		<rect x="420.301" y="412.552" transform="matrix(0.9999 0.0136 -0.0136 0.9999 5.9379 -5.7103)" fill="#E5D3BD" width="4.088" height="41.363"/>
	
		<rect x="355.457" y="437.964" transform="matrix(0.9999 0.0136 -0.0136 0.9999 6.2749 -4.8228)" fill="#E5D3BD" width="4.09" height="41.366"/>
	
		<rect x="365.607" y="419.811" transform="matrix(0.9999 0.0134 -0.0134 0.9999 5.9281 -4.8808)" fill="#E5D3BD" width="4.086" height="41.365"/>
	<polygon fill="#E5D3BD" points="362.845,421.541 366.618,372.216 427.287,371.325 426.451,423.231 	"/>
	<polygon fill="#E5D3BD" points="362.106,427.403 364.802,413.524 419.154,424.164 	"/>
</g>
<path fill="#E5D3BD" stroke="#E5D3BD" d="M242.833,604.632c-76.152,0-138.821,14.604-146.676,33.346
	c0.455,2.567,0.71,3.93,0.71,3.93l285.185,3.826c1.577-4.011,3.119-8.034,4.636-12.065
	C371.785,617.044,313.038,604.632,242.833,604.632z"/>
<ellipse fill="#D6C2AD" stroke="#E5D3BD" cx="245.655" cy="640.743" rx="117.337" ry="29.692"/>
<g>
	<path fill="#F7D289" d="M218.603,318.97c0.894-6.34-6.279-40.381-6.279-40.381l-22.087,72.214
		c3.195,8.625,5.947,17.568,8.872,24.313C205.33,358.252,217.932,323.734,218.603,318.97z"/>
	<path fill="#ED1C24" d="M294.684,388.67c-17.105-32.457,8.083-56.211,8.083-56.211l-30.582-0.763l-0.007-0.252l-5.363,0.119
		l-4.785-0.119l-0.005,0.226l-35.509,0.79c0,0,28.232,23.754,9.059,56.211c-19.174,32.457-55.777,87.121-22.659,152.036l44.46,1.177
		l-0.012,0.529l9.449-0.278l10.593,0.278l-0.012-0.595l37.506-1.111C344.446,475.791,311.789,421.127,294.684,388.67z"/>
	<g>
		<ellipse fill="#FFFFFF" cx="273.036" cy="351.856" rx="2.965" ry="2.864"/>
		<ellipse fill="#FFFFFF" cx="273.036" cy="377.911" rx="2.965" ry="2.864"/>
		<ellipse fill="#FFFFFF" cx="273.036" cy="364.883" rx="2.965" ry="2.864"/>
		<ellipse fill="#FFFFFF" cx="273.036" cy="430.022" rx="2.965" ry="2.864"/>
		<ellipse fill="#FFFFFF" cx="273.036" cy="416.995" rx="2.965" ry="2.864"/>
		<ellipse fill="#FFFFFF" cx="273.036" cy="390.939" rx="2.965" ry="2.863"/>
		<ellipse fill="#FFFFFF" cx="273.036" cy="403.968" rx="2.965" ry="2.865"/>
		<path fill="#FFFFFF" d="M257.389,518.354c1.64,0,2.967,1.284,2.967,2.863c0,1.583-1.327,2.864-2.967,2.864
			c-1.635,0-2.963-1.281-2.963-2.864C254.426,519.638,255.754,518.354,257.389,518.354z"/>
		<path fill="#FFFFFF" d="M257.389,453.214c1.64,0,2.967,1.284,2.967,2.864c0,1.582-1.327,2.864-2.967,2.864
			c-1.635,0-2.963-1.282-2.963-2.864C254.426,454.498,255.754,453.214,257.389,453.214z"/>
		<path fill="#FFFFFF" d="M257.389,427.158c1.64,0,2.967,1.282,2.967,2.865s-1.327,2.863-2.967,2.863
			c-1.635,0-2.963-1.28-2.963-2.863S255.754,427.158,257.389,427.158z"/>
		<path fill="#FFFFFF" d="M257.389,466.243c1.64,0,2.967,1.281,2.967,2.865c0,1.58-1.327,2.862-2.967,2.862
			c-1.635,0-2.963-1.282-2.963-2.862C254.426,467.524,255.754,466.243,257.389,466.243z"/>
		<path fill="#FFFFFF" d="M257.389,440.188c1.64,0,2.967,1.281,2.967,2.864c0,1.581-1.327,2.863-2.967,2.863
			c-1.635,0-2.963-1.282-2.963-2.863C254.426,441.469,255.754,440.188,257.389,440.188z"/>
		<ellipse fill="#FFFFFF" cx="273.036" cy="443.051" rx="2.965" ry="2.864"/>
		<path fill="#FFFFFF" d="M257.389,531.382c1.64,0,2.967,1.28,2.967,2.864c0,1.581-1.327,2.863-2.967,2.863
			c-1.635,0-2.963-1.282-2.963-2.863C254.426,532.662,255.754,531.382,257.389,531.382z"/>
		<path fill="#FFFFFF" d="M257.389,505.327c1.64,0,2.967,1.283,2.967,2.863c0,1.581-1.327,2.864-2.967,2.864
			c-1.635,0-2.963-1.283-2.963-2.864C254.426,506.61,255.754,505.327,257.389,505.327z"/>
		<path fill="#FFFFFF" d="M257.389,492.299c1.64,0,2.967,1.281,2.967,2.863s-1.327,2.863-2.967,2.863
			c-1.635,0-2.963-1.281-2.963-2.863S255.754,492.299,257.389,492.299z"/>
		<path fill="#FFFFFF" d="M257.389,479.271c1.64,0,2.967,1.282,2.967,2.864c0,1.581-1.327,2.863-2.967,2.863
			c-1.635,0-2.963-1.282-2.963-2.863C254.426,480.553,255.754,479.271,257.389,479.271z"/>
		<ellipse fill="#FFFFFF" cx="288.685" cy="469.107" rx="2.966" ry="2.864"/>
		<ellipse fill="#FFFFFF" cx="288.685" cy="416.995" rx="2.966" ry="2.864"/>
		<path fill="#FFFFFF" d="M285.719,364.884c0-1.583,1.328-2.864,2.966-2.864c0.241,0,0.471,0.035,0.694,0.089
			c-0.699,1.706-1.317,3.516-1.79,5.431C286.494,367.118,285.719,366.091,285.719,364.884z"/>
		<path fill="#FFFFFF" d="M285.719,377.911c0-0.765,0.314-1.458,0.821-1.97c-0.007,1.347,0.073,2.729,0.231,4.142
			C286.131,379.559,285.719,378.786,285.719,377.911z"/>
		<path fill="#FFFFFF" d="M285.719,390.938c0-1.548,1.273-2.803,2.866-2.853c0.556,1.63,1.241,3.293,2.063,4.985
			c-0.524,0.449-1.208,0.731-1.963,0.731C287.047,393.803,285.719,392.521,285.719,390.938z"/>
		<ellipse fill="#FFFFFF" cx="288.685" cy="456.078" rx="2.966" ry="2.864"/>
		<ellipse fill="#FFFFFF" cx="273.036" cy="456.078" rx="2.965" ry="2.864"/>
		<ellipse fill="#FFFFFF" cx="288.685" cy="430.022" rx="2.966" ry="2.864"/>
		<ellipse fill="#FFFFFF" cx="288.685" cy="443.051" rx="2.966" ry="2.864"/>
		<ellipse fill="#FFFFFF" cx="273.036" cy="508.191" rx="2.965" ry="2.864"/>
		<ellipse fill="#FFFFFF" cx="273.036" cy="482.134" rx="2.965" ry="2.864"/>
		<ellipse fill="#FFFFFF" cx="273.036" cy="495.162" rx="2.965" ry="2.863"/>
		<ellipse fill="#FFFFFF" cx="288.685" cy="351.856" rx="2.966" ry="2.864"/>
		<ellipse fill="#FFFFFF" cx="273.036" cy="469.107" rx="2.965" ry="2.864"/>
		<ellipse fill="#FFFFFF" cx="273.036" cy="534.246" rx="2.965" ry="2.864"/>
		<ellipse fill="#FFFFFF" cx="273.036" cy="521.217" rx="2.965" ry="2.864"/>
		<ellipse fill="#FFFFFF" cx="288.685" cy="403.968" rx="2.966" ry="2.865"/>
		<ellipse fill="#FFFFFF" cx="226.097" cy="534.246" rx="2.965" ry="2.864"/>
		<ellipse fill="#FFFFFF" cx="226.097" cy="508.191" rx="2.965" ry="2.864"/>
		<ellipse fill="#FFFFFF" cx="226.097" cy="521.217" rx="2.965" ry="2.864"/>
		<ellipse fill="#FFFFFF" cx="241.743" cy="351.856" rx="2.965" ry="2.864"/>
		<path fill="#FFFFFF" d="M238.778,390.938c0-0.677,0.255-1.29,0.663-1.783c-0.197,0.598-0.431,1.204-0.66,1.809
			C238.781,390.954,238.778,390.947,238.778,390.938z"/>
		<path fill="#FFFFFF" d="M241.743,388.076c1.639,0,2.966,1.281,2.966,2.862c0,1.582-1.327,2.864-2.966,2.864
			c-1.629,0-2.948-1.27-2.962-2.839c0.229-0.604,0.462-1.211,0.66-1.809C239.982,388.503,240.807,388.076,241.743,388.076z"/>
		<path fill="#FFFFFF" d="M244.709,377.911c0,1.581-1.327,2.863-2.966,2.863c-0.147,0-0.287-0.023-0.429-0.043
			c0.229-1.949,0.301-3.839,0.252-5.667c0.058-0.004,0.117-0.018,0.177-0.018C243.382,375.047,244.709,376.329,244.709,377.911z"/>
		<path fill="#FFFFFF" d="M241.743,362.02c1.639,0,2.966,1.281,2.966,2.864c0,1.582-1.327,2.863-2.966,2.863
			c-0.387,0-0.755-0.077-1.092-0.206c-0.34-1.538-0.761-3.005-1.237-4.41C239.957,362.459,240.792,362.02,241.743,362.02z"/>
		<ellipse fill="#FFFFFF" cx="226.097" cy="456.078" rx="2.965" ry="2.864"/>
		<path fill="#FFFFFF" d="M229.062,416.994c0,1.582-1.328,2.864-2.965,2.864c-0.761,0-1.447-0.284-1.972-0.737
			c0.853-1.68,1.705-3.326,2.553-4.935C228.038,414.449,229.062,415.605,229.062,416.994z"/>
		<ellipse fill="#FFFFFF" cx="226.097" cy="430.022" rx="2.965" ry="2.864"/>
		<ellipse fill="#FFFFFF" cx="226.097" cy="482.134" rx="2.965" ry="2.864"/>
		<ellipse fill="#FFFFFF" cx="226.097" cy="495.162" rx="2.965" ry="2.863"/>
		<ellipse fill="#FFFFFF" cx="226.097" cy="469.107" rx="2.965" ry="2.864"/>
		<ellipse fill="#FFFFFF" cx="241.743" cy="403.968" rx="2.966" ry="2.865"/>
		<ellipse fill="#FFFFFF" cx="226.097" cy="443.051" rx="2.965" ry="2.864"/>
		<ellipse fill="#FFFFFF" cx="241.743" cy="416.995" rx="2.966" ry="2.864"/>
		<ellipse fill="#FFFFFF" cx="241.743" cy="534.246" rx="2.966" ry="2.864"/>
		<path fill="#FFFFFF" d="M257.389,362.02c1.64,0,2.967,1.281,2.967,2.864c0,1.582-1.327,2.863-2.967,2.863
			c-1.635,0-2.963-1.281-2.963-2.863C254.426,363.301,255.754,362.02,257.389,362.02z"/>
		<path fill="#FFFFFF" d="M257.389,401.104c1.64,0,2.967,1.281,2.967,2.862c0,1.584-1.327,2.867-2.967,2.867
			c-1.635,0-2.963-1.283-2.963-2.867C254.426,402.385,255.754,401.104,257.389,401.104z"/>
		<path fill="#FFFFFF" d="M257.389,375.047c1.64,0,2.967,1.282,2.967,2.864c0,1.581-1.327,2.863-2.967,2.863
			c-1.635,0-2.963-1.282-2.963-2.863C254.426,376.329,255.754,375.047,257.389,375.047z"/>
		<path fill="#FFFFFF" d="M257.389,388.076c1.64,0,2.967,1.281,2.967,2.862c0,1.582-1.327,2.864-2.967,2.864
			c-1.635,0-2.963-1.282-2.963-2.864C254.426,389.357,255.754,388.076,257.389,388.076z"/>
		<path fill="#FFFFFF" d="M257.389,348.992c1.64,0,2.967,1.282,2.967,2.862c0,1.583-1.327,2.865-2.967,2.865
			c-1.635,0-2.963-1.282-2.963-2.865C254.426,350.274,255.754,348.992,257.389,348.992z"/>
		<ellipse fill="#FFFFFF" cx="241.743" cy="469.107" rx="2.966" ry="2.864"/>
		<ellipse fill="#FFFFFF" cx="241.743" cy="456.078" rx="2.966" ry="2.864"/>
		<ellipse fill="#FFFFFF" cx="241.743" cy="443.051" rx="2.966" ry="2.864"/>
		<ellipse fill="#FFFFFF" cx="241.743" cy="521.217" rx="2.966" ry="2.864"/>
		<ellipse fill="#FFFFFF" cx="241.743" cy="430.022" rx="2.966" ry="2.864"/>
		<ellipse fill="#FFFFFF" cx="241.743" cy="508.191" rx="2.966" ry="2.864"/>
		<ellipse fill="#FFFFFF" cx="241.743" cy="482.134" rx="2.966" ry="2.864"/>
		<ellipse fill="#FFFFFF" cx="241.743" cy="495.162" rx="2.966" ry="2.863"/>
		<path fill="#FFFFFF" d="M257.389,414.131c1.64,0,2.967,1.282,2.967,2.863c0,1.582-1.327,2.864-2.967,2.864
			c-1.635,0-2.963-1.282-2.963-2.864C254.426,415.413,255.754,414.131,257.389,414.131z"/>
		<path fill="#FFFFFF" d="M318.546,531.752c-0.463,1.046-0.948,2.093-1.45,3.144c-0.05-0.21-0.083-0.426-0.083-0.649
			C317.013,533.169,317.637,532.242,318.546,531.752z"/>
		<ellipse fill="#FFFFFF" cx="288.685" cy="482.134" rx="2.966" ry="2.864"/>
		<path fill="#FFFFFF" d="M319.978,518.354v5.728c-1.637,0-2.965-1.281-2.965-2.864
			C317.013,519.638,318.341,518.354,319.978,518.354z"/>
		<ellipse fill="#FFFFFF" cx="304.331" cy="430.022" rx="2.965" ry="2.864"/>
		<path fill="#FFFFFF" d="M301.366,416.994c0-1.237,0.817-2.284,1.956-2.682c0.947,1.603,1.897,3.239,2.849,4.913
			c-0.508,0.391-1.141,0.633-1.84,0.633C302.694,419.858,301.366,418.576,301.366,416.994z"/>
		<ellipse fill="#FFFFFF" cx="304.331" cy="482.134" rx="2.965" ry="2.864"/>
		<ellipse fill="#FFFFFF" cx="304.331" cy="443.051" rx="2.965" ry="2.864"/>
		<ellipse fill="#FFFFFF" cx="304.331" cy="495.162" rx="2.965" ry="2.863"/>
		<ellipse fill="#FFFFFF" cx="304.331" cy="456.078" rx="2.965" ry="2.864"/>
		<ellipse fill="#FFFFFF" cx="304.331" cy="469.107" rx="2.965" ry="2.864"/>
		<ellipse fill="#FFFFFF" cx="288.685" cy="521.217" rx="2.966" ry="2.864"/>
		<path fill="#FFFFFF" d="M319.978,505.327v5.728c-1.637,0-2.965-1.283-2.965-2.864C317.013,506.61,318.341,505.327,319.978,505.327
			z"/>
		<ellipse fill="#FFFFFF" cx="288.685" cy="495.162" rx="2.966" ry="2.863"/>
		<ellipse fill="#FFFFFF" cx="288.685" cy="534.246" rx="2.966" ry="2.864"/>
		<ellipse fill="#FFFFFF" cx="288.685" cy="508.191" rx="2.966" ry="2.864"/>
		<path fill="#FFFFFF" d="M319.978,453.214v5.729c-1.637,0-2.965-1.282-2.965-2.864
			C317.013,454.498,318.341,453.214,319.978,453.214z"/>
		<path fill="#FFFFFF" d="M317.013,443.052c0-0.495,0.142-0.953,0.37-1.358c0.563,1.336,1.11,2.69,1.643,4.058
			C317.859,445.366,317.013,444.31,317.013,443.052z"/>
		<path fill="#FFFFFF" d="M319.978,492.299v5.727c-1.637,0-2.965-1.281-2.965-2.863S318.341,492.299,319.978,492.299z"/>
		<ellipse fill="#FFFFFF" cx="304.331" cy="508.191" rx="2.965" ry="2.864"/>
		<path fill="#FFFFFF" d="M319.978,466.243v5.728c-1.637,0-2.965-1.282-2.965-2.862
			C317.013,467.524,318.341,466.243,319.978,466.243z"/>
		<path fill="#FFFFFF" d="M319.978,479.271v5.728c-1.637,0-2.965-1.282-2.965-2.863
			C317.013,480.553,318.341,479.271,319.978,479.271z"/>
		<ellipse fill="#FFFFFF" cx="304.331" cy="521.217" rx="2.965" ry="2.864"/>
		<ellipse fill="#FFFFFF" cx="304.331" cy="534.246" rx="2.965" ry="2.864"/>
		<ellipse fill="#FFFFFF" cx="210.451" cy="508.191" rx="2.965" ry="2.864"/>
		<path fill="#FFFFFF" d="M213.416,521.217c0,1.583-1.329,2.864-2.965,2.864c-0.059,0-0.115-0.013-0.17-0.017
			c-0.559-1.738-1.071-3.465-1.535-5.184c0.483-0.33,1.069-0.527,1.705-0.527C212.086,518.354,213.416,519.638,213.416,521.217z"/>
		<ellipse fill="#FFFFFF" cx="210.451" cy="482.134" rx="2.965" ry="2.864"/>
		<path fill="#FFFFFF" d="M213.343,443.664c-0.047,0.208-0.121,0.402-0.211,0.59C213.202,444.058,213.273,443.86,213.343,443.664z"
			/>
		<ellipse fill="#FFFFFF" cx="210.451" cy="495.162" rx="2.965" ry="2.863"/>
		<path fill="#FFFFFF" d="M213.416,456.078c0,1.582-1.329,2.864-2.965,2.864c-0.619,0-1.192-0.184-1.667-0.495
			c0.445-1.756,0.919-3.494,1.422-5.21c0.082-0.007,0.16-0.023,0.245-0.023C212.086,453.214,213.416,454.498,213.416,456.078z"/>
		<path fill="#FFFFFF" d="M210.451,471.971c-1.639,0-2.968-1.282-2.968-2.862c0-1.584,1.329-2.865,2.968-2.865
			c1.636,0,2.965,1.281,2.965,2.865C213.416,470.688,212.086,471.971,210.451,471.971z"/>
	</g>
	<path fill="#EA800C" stroke="#F7931D" d="M207.516,202.943l18.218,52.053c0,0,30.579,24.075,64.418,3.904
		c33.835-20.17,23.423-57.259,23.423-57.259L207.516,202.943z"/>
	<path fill="#FFDC8F" d="M246.556,235.463c0,0,13.011,24.726,3.254,35.137c-9.762,10.41,20.819,13.013,24.073,3.904
		c3.255-9.11-10.408-21.473,7.156-41.643C298.61,212.689,246.556,235.463,246.556,235.463z"/>
	<path fill="#F7D289" d="M279.241,223.934c-0.398,1.346-1.45,3.132-3.405,5.509c-17.57,21.353-3.904,34.44-7.158,44.083
		c-1.191,3.529-6.044,5.391-11.237,5.803c6.604,0.518,14.253-1.168,15.791-5.476c3.256-9.109-10.411-21.473,7.159-41.643
		C286.242,225.487,284.349,223.549,279.241,223.934z"/>
	<path fill="#E20E1E" stroke="#E20E1E" d="M226.912,604.979c0,0-3.852,6.419-2.567,11.123c1.283,4.705,8.556,22.889,7.915,23.528
		c0,0,0.429,9.84,9.197,10.91c8.77,1.07,14.758,0.429,14.758,0.429s2.57-1.499-2.993-16.473
		c-5.561-14.971-11.337-29.518-11.337-29.518H226.912z"/>
	<path fill="#FFDC8F" d="M227.771,573.434l-0.834,30.905c0,0-4.595,15.036,7.099,30.489c0,0,15.12,0.312,16.832-3.536
		c1.711-3.853-16.685-22.033-6.845-55.831C253.862,541.665,227.771,573.434,227.771,573.434z"/>
	<path fill="#F7D289" d="M244.476,575.916c4.073-13.991,1.987-16.741-1.855-15.166c0.871,1.948,0.554,6.271-1.772,14.26
		c-9.839,33.798,8.557,51.978,6.845,55.829c-1.229,2.768-9.389,3.384-13.88,3.511c0.222,0.309,0.44,0.62,0.676,0.93
		c0,0,15.121,0.315,16.831-3.535C253.032,627.894,234.636,609.713,244.476,575.916z"/>
	<g>
		<path fill="#FBF3E9" stroke="#FBF3E9" d="M244.122,631.758c0,0-5.276-5.979-6.859-3.693c-1.583,2.286,1.232,19.345,10.024,7.386
			L244.122,631.758z"/>
		<path fill="#FFFFFF" d="M242.307,631.45c0,0-3.489-3.955-4.538-2.442c-1.047,1.511,0.815,12.799,6.633,4.886L242.307,631.45z"/>
	</g>
	<g>
		<path fill="#FBF3E9" stroke="#FBF3E9" d="M247.105,629.456c0,0,5.082-5.978,6.607-3.692c1.524,2.285-1.188,19.344-9.656,7.385
			L247.105,629.456z"/>
		<path fill="#FFFFFF" d="M248.854,629.149c0,0,3.359-3.955,4.371-2.443c1.01,1.512-0.785,12.799-6.388,4.887L248.854,629.149z"/>
	</g>
	<path fill="#E20E1E" stroke="#E20E1E" d="M272.473,603.91c0,0-4.278,27.166-5.134,32.084c-0.856,4.922-1.927,14.12,4.92,14.333
		c6.846,0.214,15.616,0,15.829-6.418c0.214-6.415,2.353-35.078,2.353-35.078L272.473,603.91z"/>
	<path fill="#FFDC8F" d="M277.392,570.329c0,0,0.644,21.177-0.213,23.099c0,0-6.417,14.118-5.347,20.534
		c1.068,6.419,1.068,13.265,4.705,13.265c3.634,0,13.048,8.126,14.545-36.579c0,0,2.567-19.464,9.411-23.956
		C307.337,562.2,277.392,570.329,277.392,570.329z"/>
	<path fill="#F7D289" d="M297.732,565.541c-0.157,0.189-0.438,0.418-0.865,0.699c-6.844,4.49-9.412,23.955-9.412,23.955
		c-1.077,32.15-6.248,36.979-10.42,37.149c4.107,0.829,12.215,4.515,13.594-36.697c0,0,2.567-19.464,9.412-23.956
		C302.175,565.291,300.731,565.118,297.732,565.541z"/>
	<path fill="#EA800C" d="M298.57,114.795c0,0,22.675,6.584,24.868,34.378c2.194,27.794-13.896,68.756,2.93,70.219
		c16.817,1.461-10.244,50.468-23.412,51.201c-13.162,0.729,2.928,16.822,2.928,16.822s-46.08-10.241-22.675-32.183
		C306.614,233.288,300.768,123.573,298.57,114.795z"/>
	<path fill="#F9A01B" d="M302.305,271.242c12.554-0.698,37.706-45.242,25.454-50.665c-1.003,14.384-18.791,42.305-28.706,42.856
		c-7.9,0.438-5.26,6.408-1.888,11.114C297.358,272.747,298.773,271.439,302.305,271.242z"/>
	<path fill="#FFDC8F" d="M208.182,130.761c-20.845-4.627,9.725-7.023,41.964-7.381c4.598-0.052,9.236-0.062,13.752-0.029
		c15.296,0.276,31.821-3.707,42.15,6.25c6.198,3.983,6.198,10.456,4.903,17.426c-1.288,6.971-3.869,14.439-2.839,20.414
		c8.266,13.941,14.463,29.874,4.134,43.815c-14.463,17.923-39.253,31.865-64.447,24.427c-7.635-2.459-14.641-6.383-21.419-10.246
		c-4.696-2.937-8.866-6.466-11.96-10.698c-3.091-4.232-5.104-9.17-5.482-14.926C206.675,165.288,224.411,134.363,208.182,130.761z"
		/>
	<path fill="#F7D289" d="M308.113,167.443c-1.03-5.975,1.551-13.442,2.839-20.414c1.295-6.97,1.295-13.443-4.903-17.426
		c-7.073-6.82-17.061-7.099-27.558-6.688c6.901,0.391,13.206,1.962,18.109,6.688c6.199,3.983,6.199,10.456,4.906,17.426
		c-1.289,6.972-3.869,14.439-2.84,20.414c8.265,13.941,14.462,29.875,4.133,43.815c-10.809,13.395-27.388,24.563-45.589,26.247
		c21.816,2.071,42.38-10.564,55.036-26.247C322.576,197.317,316.379,181.384,308.113,167.443z"/>
	<path fill="#F2C577" d="M266.763,201.954c0,0,0.399,0.906,6.78,1.812c6.379,0.907,5.979-3.624,5.979-3.624
		S266.365,196.818,266.763,201.954z"/>
	<path fill="#ED9474" d="M279.09,220.807c0,0,3.681-14.422-9.243-6.994C256.918,221.241,279.09,220.807,279.09,220.807z"/>
	<path fill="#F7931D" d="M286.873,146.829l-0.249,2.239c0,0,16.425-1.741,18.418,11.449
		C307.03,173.706,309.022,145.087,286.873,146.829z"/>
	<ellipse fill="#FAB599" cx="301.575" cy="191.499" rx="12.836" ry="5.19"/>
	<path fill="#FAB599" d="M246.269,192.675c0,2.867-5.746,5.19-12.836,5.19c-7.084,0-12.833-2.323-12.833-5.19
		c0-2.866,5.748-5.191,12.833-5.191C240.523,187.483,246.269,189.809,246.269,192.675z"/>
	<path fill="#F9A01B" stroke="#F7931D" d="M263.841,90.659c0,0-54.858-22.672-73.143,29.258
		c-18.287,51.931,17.553,100.206-8.777,101.669c-13.167,0.73-15.91,7.678-12.163,14.536c1.249,2.288,3.22,4.563,5.768,6.597
		c11.366,10.241,29.805,1.022,40.177,14.851c5.763,10.373-9.219,14.983-17.286,17.287c13.829-4.608,34.572,0,40.333-13.829
		c3.46-11.524-5.761-23.048-12.605-32.172c-2.129-2.301-4.24-4.619-6.924-10.194c-7.154-14.865-32.913-86.312,87.039-89.969
		C306.26,128.692,345.758,122.112,263.841,90.659z"/>
	<path fill="#F7D289" d="M306.637,129.93c-0.324-0.313-0.672-0.574-1.01-0.861c-85.968,2.981-96.132,41.137-92.499,67.536
		c-0.72-25.789,14.703-58.073,94.313-60.5c0,0,1.714-0.288,3.686-1.023C310.273,133.108,308.857,131.356,306.637,129.93z"/>
	<path fill="#FFC50B" d="M182.321,230.587c7.295-0.405,8.741-5.219,8.059-13.047c-0.559,4.398-2.768,7.015-8.059,7.31
		c-9.882,0.547-12.563,5.385-10.56,10.511C173.047,232.8,176.379,230.917,182.321,230.587z"/>
	<path fill="#FFC50B" d="M208.883,219.335c2.684,5.574,4.795,7.893,6.925,10.195c5.095,6.793,11.501,14.917,13.017,23.382
		c2.09-10.929-6.524-21.75-13.017-30.406c-2.13-2.302-4.241-4.62-6.925-10.194c-2.289-4.759-6.479-15.316-7.192-27.588
		C200.772,199.879,206.166,213.69,208.883,219.335z"/>
	<path fill="#FFC50B" stroke="#F9A01B" d="M292.72,120.796c-74.225,2.263-87.138,33.045-85.758,56.77
		c1.364-22.521,18.056-48.313,85.758-50.378c0,0,12.6-2.101,7.404-9.756C297.719,119.961,292.72,120.796,292.72,120.796z"/>
	<path fill="#FFC50B" d="M216.163,267.044c-1.464,2.926-6.615,4.491-9.802,5.401c7.596-2.53,18.988,0,22.152-7.595
		c0.486-1.617,0.512-3.232,0.226-4.828c-0.062,0.323-0.129,0.646-0.226,0.97C226.569,265.656,221.524,266.5,216.163,267.044z"/>
	<g>
		<path fill-rule="evenodd" clip-rule="evenodd" fill="#F2C577" d="M227.199,163.479c0,0-3.461,9.746-2.431,11.396
			c1.032,1.652,23.684,1.427,23.684,1.427S247.188,161.995,227.199,163.479z"/>
		<path fill-rule="evenodd" clip-rule="evenodd" fill="#F2C577" d="M226.919,163.178c-0.843,2.381-3.51,10.284-2.373,12.107
			c1.045,1.679,18.557,1.635,23.907,1.576l0.374-0.001l-0.056-0.639c-0.055-0.607-1.536-14.794-21.586-13.309l-0.176,0.011
			L226.919,163.178z M248.447,175.737L248.447,175.737c-8.574,0.087-22.533-0.186-23.467-1.287c0,0,0.001,0.007,0.008,0.011
			c-0.5-0.804,0.885-6.172,2.485-10.69l-0.262,0.266c19.403-1.442,20.905,12.218,20.917,12.352L248.447,175.737z"/>
	</g>
	<path fill="#FFFFFF" d="M249.191,178.265c0,0-7.74-13.399-15.966-12.788c-8.226,0.611-10.849,13.414-10.849,13.414
		s23.838,0.771,25.203,2.083C248.943,182.283,249.191,178.265,249.191,178.265z"/>
	<path fill="#5DBA47" d="M231.756,167.852c0,0-7.735,8.105,0.913,11.257c8.646,3.151,10.011-8.555,10.011-8.555L231.756,167.852z"/>
	<path fill="#50AA37" d="M232.545,168.07c0,0-6.16,6.456,0.725,8.964c6.885,2.51,7.972-6.812,7.972-6.812L232.545,168.07z"/>
	<g>
		<path fill-rule="evenodd" clip-rule="evenodd" fill="#8CCA7F" d="M239.889,172.923c0.209,1.857-0.613,3.474-1.819,3.607
			c-1.207,0.133-2.353-1.265-2.554-3.123c-0.212-1.864,0.606-3.479,1.805-3.612C238.521,169.659,239.672,171.057,239.889,172.923z"
			/>
	</g>
	<g>
		<path fill-rule="evenodd" clip-rule="evenodd" fill="#F2C577" d="M303.256,163.934c0,0,3.401,9.746,2.388,11.395
			c-1.015,1.653-23.29,1.427-23.29,1.427S283.596,162.45,303.256,163.934z"/>
		<path fill-rule="evenodd" clip-rule="evenodd" fill="#F2C577" d="M303.528,163.633c0.83,2.381,3.453,10.283,2.336,12.107
			c-1.033,1.678-18.254,1.634-23.515,1.576l-0.37-0.001l0.059-0.64c0.053-0.607,1.511-14.795,21.228-13.31l0.172,0.01
			L303.528,163.633z M282.357,176.193L282.357,176.193c8.434,0.087,22.16-0.187,23.076-1.287c0,0,0,0.006-0.007,0.011
			c0.492-0.805-0.868-6.172-2.443-10.691l0.258,0.266c-19.081-1.441-20.556,12.218-20.568,12.353L282.357,176.193z"/>
	</g>
	<path fill="#FFFFFF" d="M281.31,178.813c0,0,7.643-13.456,15.767-12.842c8.125,0.614,10.715,13.472,10.715,13.472
		s-23.544,0.774-24.89,2.092C281.557,182.851,281.31,178.813,281.31,178.813z"/>
	<path fill="#5DBA47" d="M296.753,168.307c0,0,8.337,8.106-0.985,11.257c-9.326,3.152-10.797-8.555-10.797-8.555L296.753,168.307z"
		/>
	<path fill="#50AA37" d="M296.296,168.001c0,0,5.896,7.174-0.696,9.964c-6.594,2.789-7.639-7.572-7.639-7.572L296.296,168.001z"/>
	<path fill="#CC7958" d="M101.032,585.34c0,0,11.33-20.442,28.498-23.093c17.167-2.652,65.703-4.793,71.362,8.754
		c5.658,13.548,10.292,60.163,0.246,69.896c-10.043,9.733-24.44,11.914-24.44,11.914L101.032,585.34z"/>
	<path fill="#C46A4B" d="M125.438,569.287c0,0,4.334,1.596,5.098,0.56c0.763-1.035,2.872-7.48,5.796-8.754
		c2.921-1.271,15.083-2.816,19.694,7.671c0,0,5.223,2.482,7.037,0.62c1.813-1.862,2.007-3.319-3.358-5.907
		c-5.368-2.586-6.528-9.382-14.218-9.116c-7.694,0.268-14.011,7.039-14.961,12.511C130.527,566.871,127.891,564.466,125.438,569.287
		z"/>
	<path fill="#CF835F" stroke="#CF835F" d="M172.522,651.37c9.862,5.144,21.521-5.601,18.542-16.243
		c-0.604-23.281,7.174-53.205-28.527-55.096c-35.697-1.896-69.705-9.75-61.388,17.218c8.316,26.966,8.888,53.431,34.149,53.234
		c9.838-0.812,17.943,0.009,28.122,0.452C169.529,651.112,172.522,651.37,172.522,651.37z"/>
	<path fill="#42362F" d="M243.993,168.419c-3.655-2.775-8.697-3.767-14.988-2.942c-6.45,0.842-8.533-1.602-9.076-2.519
		c-0.188-0.595-0.328-0.59-0.474-0.562c-0.124,0.026-0.242,0.142-0.219,0.315c0.017,0.107,0.092,0.283,0.203,0.481
		c0.046,0.148,0.091,0.299,0.149,0.547c0.42,1.851,2.125,2.424,3.356,2.625l-0.005,0.008c-3.118,0.655-6.161-0.666-6.19-0.676
		l-0.24-0.106l-0.114,0.226c-0.022,0.036-0.168,0.339,0.081,0.743c0.596,0.975,3.28,2.21,12.681,2.554
		c14.118,0.521,17.813,3.623,20.002,9.54l0.51-0.118C249.667,178.478,249.133,172.322,243.993,168.419z"/>
	<path fill="#42362F" d="M286.41,168.718c3.377-2.707,8.003-3.601,13.747-2.657c5.886,0.966,7.822-1.438,8.332-2.345
		c0.181-0.591,0.309-0.583,0.442-0.553c0.111,0.028,0.217,0.147,0.196,0.32c-0.021,0.106-0.089,0.281-0.191,0.478
		c-0.045,0.147-0.09,0.298-0.147,0.543c-0.406,1.843-1.977,2.383-3.102,2.562v0.009c2.844,0.713,5.647-0.548,5.676-0.559
		l0.216-0.102l0.102,0.229c0.021,0.037,0.153,0.341-0.081,0.741c-0.557,0.962-3.028,2.146-11.634,2.311
		c-12.917,0.25-16.339,3.281-18.418,9.154l-0.467-0.127C281.086,178.665,281.657,172.523,286.41,168.718z"/>
	<g>
		<path fill-rule="evenodd" clip-rule="evenodd" fill="#FFFFFF" d="M236.707,171.916c0.148,1.29-0.422,2.41-1.258,2.503
			c-0.837,0.093-1.63-0.878-1.77-2.169c-0.146-1.294,0.42-2.416,1.252-2.507C235.762,169.649,236.559,170.62,236.707,171.916z"/>
	</g>
	<g>
		<path fill-rule="evenodd" clip-rule="evenodd" fill="#FFFFFF" d="M234.643,175.219c0.067,0.605-0.198,1.133-0.591,1.176
			c-0.393,0.043-0.766-0.412-0.831-1.019c-0.069-0.609,0.196-1.135,0.588-1.178C234.198,174.155,234.57,174.611,234.643,175.219z"/>
	</g>
	<g>
		<path fill-rule="evenodd" clip-rule="evenodd" fill="#FFFFFF" d="M298.021,176.255c0.066,0.606-0.199,1.132-0.592,1.177
			c-0.394,0.043-0.766-0.413-0.832-1.02c-0.068-0.607,0.197-1.134,0.59-1.177C297.575,175.19,297.949,175.646,298.021,176.255z"/>
	</g>
	<g>
		<path fill-rule="evenodd" clip-rule="evenodd" fill="#8CCA7F" d="M296.804,173.661c0.207,1.858-0.681,3.482-1.968,3.624
			c-1.294,0.144-2.509-1.247-2.709-3.106c-0.213-1.863,0.674-3.486,1.958-3.629C295.365,170.406,296.587,171.796,296.804,173.661z"
			/>
	</g>
	<g>
		<path fill-rule="evenodd" clip-rule="evenodd" fill="#FFFFFF" d="M294.941,172.25c0.04,1.062,0.535,1.83,1.109,1.717
			c0.563-0.11,0.989-1.062,0.944-2.125c-0.04-1.063-0.539-1.831-1.104-1.721C295.325,170.234,294.901,171.183,294.941,172.25z"/>
	</g>
	<path fill="#FFDC8F" d="M249.772,262.926c0,0-35.534,10.659-36.789,19.542c-1.254,8.883,11.706,57.295,11.706,57.295l73.579-2.22
		c0,0,11.706-46.192,8.362-56.852c-3.347-10.66-35.537-20.431-40.554-19.098C261.061,262.926,249.772,262.926,249.772,262.926z"/>
	<path fill="#F7D289" d="M301.385,278.041c-0.041-0.181-0.079-0.373-0.132-0.534c-2.713-8.6-27.516-16.519-33.924-16.425
		c0.184,0.803,0.361,1.564,0.49,2.292C272.98,262.861,296.087,269.911,301.385,278.041z"/>
	<path fill="#F7D289" d="M251.224,279.381c0,0-17.151-0.678-19.092-3.66C230.19,272.74,251.224,279.381,251.224,279.381z"/>
	<path fill="#F7D289" d="M270.891,279.416c0,0,17.563,1.13,19.894-1.633C293.113,275.019,270.891,279.416,270.891,279.416z"/>
	<path fill="#F7D289" d="M264.156,303.245c0,0,35.194,2.248,36.428-26.009c-4.197,24.082-36.028,22.031-36.028,22.031
		c-36.106,0.304-42.482-15.905-43.266-24.819c-0.146,0.083-0.294,0.166-0.438,0.25C220.375,281.502,222.058,303.599,264.156,303.245
		z"/>
	<g>
		<g>
			<circle fill="#FBF3E9" stroke="#FBF3E9" cx="250.116" cy="264.83" r="2.623"/>
			<circle fill="#FFFFFF" cx="250.87" cy="264.306" r="1.312"/>
		</g>
		<g>
			<circle fill="#FBF3E9" stroke="#FBF3E9" cx="255.23" cy="267.528" r="2.622"/>
			<circle fill="#FFFFFF" cx="255.984" cy="267.004" r="1.311"/>
		</g>
		<g>
			<circle fill="#FBF3E9" stroke="#FBF3E9" cx="260.861" cy="268.126" r="2.623"/>
			<circle fill="#FFFFFF" cx="261.615" cy="267.603" r="1.311"/>
		</g>
		<g>
			<circle fill="#FBF3E9" stroke="#FBF3E9" cx="266.416" cy="268.137" r="2.623"/>
			<circle fill="#FFFFFF" cx="267.17" cy="267.614" r="1.311"/>
		</g>
		<g>
			<circle fill="#FBF3E9" stroke="#FBF3E9" cx="272.091" cy="267.281" r="2.623"/>
			<circle fill="#FFFFFF" cx="272.846" cy="266.757" r="1.312"/>
		</g>
		<g>
			<circle fill="#FBF3E9" stroke="#FBF3E9" cx="277.471" cy="264.961" r="2.623"/>
			<circle fill="#FFFFFF" cx="278.226" cy="264.437" r="1.311"/>
		</g>
	</g>
	<path fill="#ED1C24" d="M300.528,272.726c2.508,33.027-36.372,30.519-36.372,30.519c-49.749,0.417-43.059-30.519-43.059-30.519
		l-9.615,5.854l12.124,59.364h75.249l10.871-59.782L300.528,272.726z"/>
	<path fill="#E20E1E" d="M289.714,306.395c-13.133,15.311-35.241,31.999-67.192,27.342l0.986,4.83h75.25l10.87-59.783l-1.644-0.972
		C304.533,285.127,298.537,296.108,289.714,306.395z"/>
	<g>
		<path fill="#FFFFFF" d="M286.874,303.126c1.693,0,3.067-1.374,3.067-3.068c0-0.792-0.31-1.509-0.801-2.053
			c-1.686,1.084-3.457,1.977-5.264,2.708C284.18,302.093,285.405,303.126,286.874,303.126z"/>
		<path fill="#FFFFFF" d="M238.316,303.126c1.258,0,2.338-0.761,2.81-1.847c-2.111-0.636-4.007-1.365-5.715-2.167
			c-0.098,0.3-0.164,0.614-0.164,0.945C235.247,301.752,236.621,303.126,238.316,303.126z"/>
		<path fill="#FFFFFF" d="M219.06,286.102c0,1.697,1.374,3.07,3.068,3.07c0.503,0,0.971-0.133,1.392-0.348
			c-1.123-1.914-1.862-3.828-2.339-5.624C219.953,283.6,219.06,284.74,219.06,286.102z"/>
		<path fill="#FFFFFF" d="M303.061,296.99c-1.692,0-3.067,1.373-3.067,3.068s1.375,3.068,3.067,3.068
			c0.762,0,1.448-0.288,1.984-0.746l0.69-3.795C305.213,297.639,304.217,296.99,303.061,296.99z"/>
		<circle fill="#FFFFFF" cx="303.061" cy="286.104" r="3.068"/>
		<circle fill="#FFFFFF" cx="222.128" cy="300.058" r="3.068"/>
		<circle fill="#FFFFFF" cx="238.316" cy="327.97" r="3.068"/>
		<path fill="#FFFFFF" d="M299.993,314.015c0,1.461,1.024,2.68,2.395,2.987l1.093-6.014c-0.14-0.019-0.275-0.042-0.42-0.042
			C301.368,310.946,299.993,312.319,299.993,314.015z"/>
		<circle fill="#FFFFFF" cx="222.128" cy="314.014" r="3.068"/>
		<circle fill="#FFFFFF" cx="286.874" cy="327.97" r="3.068"/>
		<circle fill="#FFFFFF" cx="286.874" cy="314.014" r="3.068"/>
		<path fill="#FFFFFF" d="M270.688,310.946c-1.696,0-3.069,1.374-3.069,3.069c0,1.694,1.373,3.067,3.069,3.067
			c1.692,0,3.066-1.374,3.066-3.067C273.755,312.319,272.381,310.946,270.688,310.946z"/>
		<circle fill="#FFFFFF" cx="238.316" cy="314.014" r="3.068"/>
		<path fill="#FFFFFF" d="M254.498,324.902c-1.691,0-3.066,1.373-3.066,3.068c0,1.694,1.375,3.068,3.066,3.068
			c1.697,0,3.071-1.374,3.071-3.068C257.569,326.275,256.195,324.902,254.498,324.902z"/>
		<path fill="#FFFFFF" d="M254.498,310.946c-1.691,0-3.066,1.374-3.066,3.069c0,1.694,1.375,3.067,3.066,3.067
			c1.697,0,3.071-1.374,3.071-3.067C257.569,312.319,256.195,310.946,254.498,310.946z"/>
		<path fill="#FFFFFF" d="M270.688,324.902c-1.696,0-3.069,1.373-3.069,3.068c0,1.694,1.373,3.068,3.069,3.068
			c1.692,0,3.066-1.374,3.066-3.068C273.755,326.275,272.381,324.902,270.688,324.902z"/>
	</g>
	<path fill="#F7D289" d="M258.67,182.17c0,0,16.529-2.953,20.661,1.18C283.465,187.483,258.67,182.17,258.67,182.17z"/>
	<path fill="#F7931D" d="M250.891,150.775l-0.563,2.329c0,0-16.726-8.176-23.701,4.184
		C219.647,169.646,228.118,140.353,250.891,150.775z"/>
	<path fill="#FFDC8F" d="M176.58,324.374c0,0-6.604-6.993-13.984-6.604c-7.38,0.389-20.587-1.553-20.587-1.553l5.827,3.884
		c0,0-15.539,5.438-15.539-0.777c0-6.215-6.604,8.935,4.662,8.157c11.265-0.777,27.063-4.64,31.011,0.01
		C171.918,332.142,176.58,324.374,176.58,324.374z"/>
	<g>
		<path fill="#A3B2AA" d="M162.805,367.277L162.805,367.277c0.229-0.133,23.03-13.373,32.854-13.841
			c9.593-0.457,20.942,22.015,21.055,22.241l0.666-0.813l-5.279-1.44l-0.303,1.109l5.279,1.44l1.241,0.34l-0.575-1.151
			c-0.478-0.954-11.805-23.368-22.14-22.876c-10.103,0.481-32.432,13.446-33.377,13.998L162.805,367.277z"/>
	</g>
	<path fill="#FFDC8F" d="M199.264,374.809c-8.581-18.699-15.31-57.51-35.496-54.136c9.42,16.874,9.42,47.25,27.021,52.168
		C195.029,373.822,199.264,374.809,199.264,374.809z"/>
	<path fill="#C18B84" d="M249.587,596.977c0,0-9.119,1.439-16.318-6.719c0,0-14.878-21.115-17.278-95.986
		c0,0-6.24-30.237,16.317-35.996c9.163-2.339,35.832-8.005,64.69-12.332c4.123-0.619,8.289-1.21,12.464-1.759
		c11.34-1.77,23.336-4.955,35.373-6.259c3.01-0.327,6.022-0.535,9.021-0.566c34.652-3.615,47.308,33.195,41.555,63.105
		c-1.149,6.902,2.302,14.955,0,19.556c-2.3,4.603-10.353,6.902-16.306,9.658c-3.532,1.835-7.492,3.893-11.773,6.118
		C324.516,558.044,249.587,596.977,249.587,596.977z"/>
	<path fill="#D8AFA7" d="M282.223,452.996l9.599-0.479c0,0-1.439-7.2-0.479-10.079c0.958-2.88,25.435-14.397,31.195,2.88
		l0.479,3.358l9.119-0.959l-6.238-3.359l-2.4-0.479c0,0,2.4-11.519-21.596-11.519c-23.998,0-13.439,15.357-13.439,15.357
		l-5.759,1.439L282.223,452.996z"/>
	<path fill="#CE9B91" d="M256.732,460.394c-21.22-1.341-40.776,14.764-34.038,37.188c0.146,3.757,0.279,7.947,0.446,12.409
		c1.336,35.692,4.945,88.522,32.206,86.987l132.461-26.396c0,0,21.598-3.359,15.358-37.915s1.921-95.987-37.914-89.748
		c-23.9,3.743-58.169,9.215-81.759,12.993c-3.933,0.63-7.565,1.214-10.81,1.743c-3.245,0.528-6.098,1.009-8.461,1.422
		C259.492,459.9,256.732,460.394,256.732,460.394z"/>
	<path fill="#ADC6B9" d="M163.421,366.206l54.712,8.638c0,0,1.919,62.871-14.398,100.307l-57.112-9.117L163.421,366.206z"/>
	<path fill="#AAC1B5" d="M146.303,465.238l57.052,9.486c1.179-2.657,2.264-5.448,3.266-8.333l-58.977-8.824L146.303,465.238z"/>
	<polygon fill="#E3DFBE" stroke="#E3DFBE" points="228.419,322.522 359.981,329.789 369.034,414.584 227.354,417.975 	"/>
	<polygon fill="#CEC69D" stroke="#E3DFBE" points="226.999,418.075 222.032,422.55 365.45,421.71 369.082,414.247 	"/>
	<polygon fill="#CEC69D" stroke="#E3DFBE" points="221.935,422.33 222.263,332.334 227.825,322.527 227.497,417.713 	"/>
	<path fill="#DDD7B3" stroke="#E3DFBE" d="M294.201,387.78c-32.608,6.546-55.383,21.05-65.891,29.707l139.896-3.184l-8.98-80
		l-0.935-0.049c-2.775,4.946-6.51,10.949-11.208,17.118C336.503,365.263,318.742,382.854,294.201,387.78z"/>
	
		<rect x="156.979" y="400.153" transform="matrix(0.9881 0.1536 -0.1536 0.9881 64.6403 -22.7901)" fill="#B6D3C3" width="45.586" height="13.345"/>
	
		<rect x="155.073" y="421.486" transform="matrix(0.9881 0.1536 -0.1536 0.9881 67.002 -22.313)" fill="#B6D3C3" width="45.586" height="1.717"/>
	<path fill="#A3B2AA" d="M163.012,365.69c0,0-8.203,97.395-15.11,100.784C140.995,469.866,152.65,372.475,163.012,365.69z"/>
	<path fill="#A3B2AA" d="M186.938,474.191c17.278-33.596,13.438-103.667,13.438-103.667l18.237,1.439
		c0,0,4.319,72.471-16.318,105.106L186.938,474.191z"/>
	<path fill="#9AA89F" d="M205.668,468.729l-14.871-2.043c-1.005,2.652-2.102,5.168-3.303,7.505l15.358,2.879
		c2.364-3.738,4.396-8.004,6.15-12.618C207.946,465.939,206.839,467.372,205.668,468.729z"/>
	<path fill="#D6A598" d="M340.687,521.927c-6.952-25.203,29.903-58.217,46.341-71.441c-4.93-5.368-11.867-8.007-21.776-6.454
		c-23.9,3.743-58.169,9.215-81.759,12.993c-3.931,0.629-7.565,1.214-10.81,1.743c-3.243,0.528-6.097,1.009-8.462,1.422
		c-4.729,0.823-7.486,1.316-7.486,1.316c-21.222-1.341-40.778,14.764-34.04,37.188c0.147,3.757,0.279,7.946,0.446,12.408
		c0.856,22.866,2.644,52.763,10.987,70.897C267.445,572.729,347.756,547.549,340.687,521.927z"/>
	<path fill="#D8AFA7" d="M233.176,523.811c0,0-13.438-45.114,9.599-49.435c23.036-4.319,44.634-5.759,44.634-5.759
		S223.578,472.937,233.176,523.811z"/>
	<g>
		<path fill="#FBF3E9" stroke="#FBF3E9" d="M274.704,627.659c0,0-5.274-5.979-6.858-3.694c-1.582,2.285,1.231,19.346,10.023,7.386
			L274.704,627.659z"/>
		<path fill="#FFFFFF" d="M272.891,627.351c0,0-3.49-3.954-4.537-2.442c-1.049,1.511,0.813,12.799,6.632,4.887L272.891,627.351z"/>
	</g>
	<g>
		<path fill="#FBF3E9" stroke="#FBF3E9" d="M281.456,627.432c0,0,5.081-5.979,6.606-3.693c1.524,2.286-1.187,19.345-9.655,7.385
			L281.456,627.432z"/>
		<path fill="#FFFFFF" d="M283.203,627.123c0,0,3.361-3.954,4.372-2.441c1.009,1.511-0.786,12.798-6.39,4.886L283.203,627.123z"/>
	</g>
	<ellipse fill="#ED1C24" cx="275.441" cy="641.732" rx="5.964" ry="1.865"/>
	
		<ellipse transform="matrix(0.9819 0.1893 -0.1893 0.9819 126.5084 -35.2861)" fill="#ED1C24" cx="247.93" cy="644.46" rx="5.965" ry="1.863"/>
	<g>
		<path fill="#FFDC8F" d="M302.256,420.771l-9.908,14.38c0,0,6.711-1.916,6.711-4.153s4.155,9.266,0.64,14.062
			c-3.515,4.795,8.948,0.321,8.948,0.321s4.793-12.146,1.598-20.454c-0.497-1.295-0.444-3.067-0.001-5.157
			c-2.229-1.417-4.727-2.975-6.732-4.155L302.256,420.771z"/>
		<path fill="#F7D289" d="M310.243,424.716c-0.497-1.295-0.444-3.067-0.001-5.156c-0.573-0.365-1.164-0.738-1.76-1.112
			c-0.36,1.963-0.389,3.648,0.073,4.89c3.195,8.586-1.599,21.137-1.599,21.137s-5.098,1.889-7.853,1.954
			c0.556,1.966,9.541-1.259,9.541-1.259S313.438,433.023,310.243,424.716z"/>
		<g>
			<path fill="#F7D289" d="M301.23,446.911c0,0,2.848-5.801,2.742-10.02C303.868,432.674,301.23,446.911,301.23,446.911z"/>
			<path fill="#F7D289" d="M301.359,446.974c0.028-0.058,2.862-5.879,2.758-10.085l-0.289,0.007
				c0.104,4.136-2.699,9.894-2.727,9.953L301.359,446.974z"/>
		</g>
		<g>
			<path fill="#F7D289" d="M304.289,446.491c0,0,2.849-5.801,2.743-10.019C306.927,432.252,304.289,446.491,304.289,446.491z"/>
			<path fill="#F7D289" d="M304.419,446.555c0.027-0.061,2.863-5.882,2.757-10.088l-0.288,0.007
				c0.104,4.138-2.699,9.896-2.728,9.954L304.419,446.555z"/>
		</g>
		<g>
			<path fill="#F7D289" d="M306.715,445.751c0,0,2.848-5.801,2.743-10.019C309.352,431.515,306.715,445.751,306.715,445.751z"/>
			<path fill="#F7D289" d="M306.845,445.814c0.027-0.058,2.861-5.879,2.757-10.086l-0.288,0.007c0.104,4.137-2.7,9.896-2.728,9.952
				L306.845,445.814z"/>
		</g>
	</g>
	<g>
		<path fill="#DDD7B3" stroke="#E3DFBE" d="M327.914,329.387c-0.242-1.86-6.04-45.62-19.278-51.659l-0.502,1.509
			c12.468,5.688,18.322,49.913,18.381,50.36L327.914,329.387z"/>
	</g>
	<path fill="#FFDC8F" d="M309.628,278.783l31.206,83.094l-31.7,63.093l-8.081-5.284c0,0,15.541-50.972,24.864-56.566
		c0,0-21.561-47.076-22.437-52.131C302.606,305.932,309.628,278.783,309.628,278.783z"/>
	<path fill="#F7D289" d="M340.834,361.119l-31.206-83.094c0,0-0.516,1.999-1.25,5.001l29.045,77.334l-31.147,61.982l2.858,1.868
		L340.834,361.119z"/>
	<g>
		<g>
			<circle fill="#FBF3E9" stroke="#FBF3E9" cx="301.15" cy="421" r="1.538"/>
			<circle fill="#FFFFFF" cx="301.592" cy="420.692" r="0.77"/>
		</g>
		<g>
			<circle fill="#FBF3E9" stroke="#FBF3E9" cx="304.15" cy="422.583" r="1.539"/>
			<circle fill="#FFFFFF" cx="304.594" cy="422.275" r="0.769"/>
		</g>
		<g>
			<circle fill="#FBF3E9" stroke="#FBF3E9" cx="307.454" cy="422.934" r="1.539"/>
			<circle fill="#FFFFFF" cx="307.896" cy="422.627" r="0.77"/>
		</g>
		<g>
			<circle fill="#FBF3E9" stroke="#FBF3E9" cx="310.713" cy="422.941" r="1.539"/>
			<circle fill="#FFFFFF" cx="311.155" cy="422.634" r="0.77"/>
		</g>
	</g>
	<g>
		<path fill="#DDD7B3" stroke="#E3DFBE" d="M289.621,325.965c0.348-1.806,8.656-44.273,19.639-48.14l0.27,1.578
			c-10.345,3.643-18.734,46.563-18.818,46.996L289.621,325.965z"/>
	</g>
</g>
</svg>
