<?xml version="1.0" encoding="UTF-8"?>
<!DOCTYPE svg PUBLIC "-//W3C//DTD SVG 1.1//EN" "http://www.w3.org/Graphics/SVG/1.1/DTD/svg11.dtd">
<!-- Creator: CorelDRAW -->
<svg xmlns="http://www.w3.org/2000/svg" xml:space="preserve" width="1000px" height="500px" style="shape-rendering:geometricPrecision; text-rendering:geometricPrecision; image-rendering:optimizeQuality; fill-rule:evenodd; clip-rule:evenodd"
viewBox="0 0 1000 500"
 xmlns:xlink="http://www.w3.org/1999/xlink">
 <defs>
  <style type="text/css">
   <![CDATA[
    .fil3 {fill:#010101}
    .fil2 {fill:url(#id0)}
    .fil1 {fill:url(#id1)}
    .fil0 {fill:url(#id2)}
   ]]>
  </style>
  <radialGradient id="id0" gradientUnits="userSpaceOnUse" cx="650.167" cy="352.594" r="1249.03" fx="650.167" fy="352.594">
   <stop offset="0" style="stop-color:#6C1C25"/>
   <stop offset="1" style="stop-color:#470506"/>
  </radialGradient>
  <radialGradient id="id1" gradientUnits="userSpaceOnUse" cx="670.172" cy="324.338" r="1248.37" fx="670.172" fy="324.338">
   <stop offset="0" style="stop-color:#8A1905"/>
   <stop offset="1" style="stop-color:#9C1C02"/>
  </radialGradient>
  <radialGradient id="id2" gradientUnits="userSpaceOnUse" cx="700.169" cy="355.106" r="1073.6" fx="700.169" fy="355.106">
   <stop offset="0" style="stop-color:#FFD900"/>
   <stop offset="1" style="stop-color:#9C1C02"/>
  </radialGradient>
 </defs>
 <g id="Livello_x0020_1">
  <metadata id="CorelCorpID_0Corel-Layer"/>
  <rect class="fil0" x="0.231496" y="0.901857" width="999.91" height="498.878"/>
  <path class="fil1" d="M2.77795 300.797c0,0 101.874,-7.97717 203.748,13.2951 101.874,21.2717 106.303,1.77225 116.27,3.54508 9.96556,1.77284 110.733,-10.6358 219.251,-10.6358 108.518,0 147.275,15.0673 220.358,16.8402 73.0837,1.77225 142.846,-16.8402 183.816,-15.9538 40.9713,0.885827 53.9215,-4.43209 53.9215,-4.43209l0 92.178 -999.91 9.74942 2.54646 -104.586z"/>
  <path class="fil2" d="M0.231496 320.296c0,7.53426 84.4436,-16.8396 189.583,-9.74942 105.139,7.09075 244.456,32.416 315.922,36.0756 71.4662,3.65965 127.236,-19.1463 259.259,-3.23681 132.023,15.9095 147.132,-18.7872 234.611,-15.1122l0.527953 92.178 -999.902 0 0 -100.155z"/>
  <path class="fil3" d="M502.419 344.052l3.41398 -8.75906 0.9313 2.55473c1.38721,-5.95099 5.71182,-6.40689 8.06989,-9.92658l-3.10394 0c-6.02245,4.03051 -10.7581,17.5654 -13.0358,19.2331l0 -1.86083 0.62067 -1.86142 1.7876 -3.19252 -1.7876 1.3311 0 -3.10217 0 -2.48209 -5.08878 12.9845c-1.67244,-0.434055 -2.98051,-1.54843 -2.98051,-3.67737 0,-0.366733 2.51162,-3.6939 2.48268,-3.72284l-0.517323 -0.724016 -1.83248 2.09764 -5.338 -7.22067c-0.0643701,4.07599 2.72185,4.67717 2.72185,11.4307 0,0.0838583 -0.61063,1.22894 -0.62067,1.24134l-7.03938 -8.37461 2.6941 15.8197 -3.225 3.6065 0.121063 2.59784 -4.0252 4.07067 -0.320079 -2.20984c0,-2.82874 2.94154,-7.69194 4.34528,-9.3065l0 -3.10217 -7.65827 10.8171c-0.411614,-14.6971 8.16497,-20.5961 8.27894,-25.7073l-3.07205 -0.747048 0.643701 4.45926 -8.74489 14.2801 -4.29803 8.09174 -0.592323 4.32933c-2.09173,-1.48878 -1.15807,-11.0705 1.78642,-13.0412l6.76595 -17.654 0.786615 0.178347 -0.62067 -0.62067 -10.6565 19.337c-1.16457,1.73858 -5.75552,9.47481 -7.44922,9.92717 0.0832678,-3.71811 1.24193,-2.70886 1.24193,-5.58426l0 -1.24075 3.72461 -4.34292c5.37933,-10.1616 13.6565,-24.9036 13.6565,-40.3282l0 -9.92717c0,-28.513 -18.6685,-49.1156 -42.2115,-54.5977l0.756497 -2.44606c-1.52776,-0.359646 -1.5626,-0.656103 -3.23918,-0.656103l-7.44922 0c-9.32894,0 -20.2577,6.82501 -22.3471,6.82501 -1.3435,0 -4.96595,-4.83426 -4.96595,-7.44568 0,-0.869292 0.846261,-1.24075 1.86201,-1.24075l3.10394 0c0.0832678,3.7441 1.20591,3.27815 3.72461,4.96359l0 -5.58367c5.42776,-1.26378 8.06989,-5.79981 8.06989,-12.4087 0,-5.52166 -4.6813,-9.52028 -8.06989,-11.7886 -3.94311,0 -7.96123,-0.688583 -10.5555,-0.664371 -5.05926,0.0454725 -4.96359,3.00591 -4.96359,-4.9193 -0.452363,-0.675591 -2.24114,-3.10217 -3.10335,-3.10217 -5.32264,0 -2.20453,-1.44567 -3.96555,-8.44489 -1.80236,-7.16162 -1.00039,-3.0939 -1.00039,-10.7882 0,-0.851575 -1.29567,-1.48228 -1.8626,-1.86142 -1.45394,0.338386 -1.83366,0.62067 -3.72461,0.62067l-1.24134 0c-2.71181,0 -2.25414,-1.24134 -4.96595,-1.24134l-1.24134 0c-3.13819,0 -3.29764,0.999213 -6.20788,1.24134 -0.504922,-2.16732 -1.24134,-2.08937 -1.24134,-4.34351l0 -3.10217c0,-2.8565 1.78228,-1.24075 3.72461,-1.24075l6.20729 0 0 -3.10217c-4.48111,-1.0435 -13.1244,-0.601182 -16.8171,-1.80414 -4.31457,-1.40492 -0.667914,-8.38761 -10.4959,-7.50237l-8.03977 0.95315 -0.0295276 -4.05532c0,-1.15158 2.23878,-3.90827 2.81398,-5.25296 0.831497,-1.9441 0.998623,-3.93544 1.89036,-6.17599 1.60099,-4.02107 3.14764,-6.75768 5.01792,-10.4953 3.9691,-7.93111 8.7443,-11.6091 10.7622,-20.2648l-6.00237 -2.91555 -0.204921 -5.1502 -0.725788 -9.29646c-3.55276,0.294095 -7.3441,9.49194 -7.3441,13.6394l0 14.2701c0,1.42973 0.431693,1.86083 1.86201,1.86083 1.28504,0 -0.237992,-0.962599 3.10394,-1.24075 -1.60571,6.88878 -10.3919,23.302 -16.1398,26.0581 0,6.34902 0.69626,14.2701 -5.58662,14.2701 -1.4941,0 -2.75788,-1.24075 -4.96595,-1.24075 -1.38366,0 -2.34803,3.96614 -2.48327,5.58367l-4.73859 -2.51693 0.393898 -0.585237 3.10335 0c-0.131102,-1.57618 0.00236221,-2.71536 -1.86201,-2.4815l-14.3315 1.43209c-3.57815,-7.13682 0.745276,-1.59095 -5.3191,-5.36871 -0.734646,-0.457678 -4.69666,-4.48819 -5.29548,-5.25414 -3.36083,-4.29803 -6.163,-7.99843 -9.19548,-12.5244l-0.79193 -7.51064c-3.94488,0.356103 -19.0719,5.82638 -19.0719,8.75138l0 1.86142c0,2.88721 0.553937,9.92717 3.10335,9.92717l0.62126 0c4.45217,0 13.252,-4.27205 16.1392,-6.20434 4.78465,3.20197 16.7604,15.2203 16.7604,22.3353 -10.4864,0 -8.05276,1.15512 -13.5289,4.47107 -1.32284,0.800788 -11.9805,2.97402 -14.4047,2.97402 -0.8563,1.27854 -1.8626,1.61102 -1.8626,3.10217l0 1.86142c0,1.90748 1.8189,2.4815 3.72461,2.4815 4.15866,0 7.06004,-2.4815 13.0358,-2.4815l1.86201 0c1.17225,0 7.90276,6.88997 8.69056,8.06575 -1.60158,2.18504 -6.17776,3.25512 -8.57304,5.70119 -2.31319,2.36162 -0.241536,2.12008 -3.31595,4.13032 -1.54252,1.00866 -2.80984,1.44331 -4.38662,2.44075 -5.50571,3.48366 -11.0498,7.80001 -16.1197,11.8081 -4.725,3.73524 -10.2579,9.11812 -13.9223,14.0043 -6.14528,8.19509 -0.418701,12.7908 -15.137,12.7908l-4.96536 0c-7.86556,0 -15.7152,-1.38425 -22.7032,-2.74666 -4.89981,-0.955513 -17.7874,-4.07835 -21.3703,-4.07835l-8.69056 0c-1.35591,0 -7.65119,6.33367 -9.31123,7.44508l-1.75099 -5.61733c-7.7191,0.0336614 -21.9939,-1.4941 -28.0453,-0.587008l-5.56595 0.758268 -1.98898 2.24823c-3.40217,-0.721064 -6.45001,1.09665 -7.34292,4.43859 -11.2896,0 -25.6512,10.5473 -26.6923,10.5473l-4.96595 0c-2.71181,0 -2.25414,-1.24075 -4.96595,-1.24075 -4.9441,0 -11.1738,7.8189 -11.1738,13.0293l0 1.24075c0,3.31122 2.25473,4.01044 3.72461,6.20434l-9.53446 9.0632 0.656103 0.295866 -2.87008 23.5293 13.976 -15.1264 1.42441 -7.22835 4.41792 0.0135827c4.39548,0 8.59253,-5.47087 13.6565,-5.58367 -0.298229,3.57756 -9.9319,12.6921 -9.9319,27.2988l0 6.20434c0,10.3884 11.1272,28.6973 17.3805,32.8831l3.72461 3.10217 9.85867 7.54194c-0.783071,1.1811 -1.78878,1.51358 -1.78878,3.00532l0 2.4815 -1.86201 0c-2.06457,0 -1.81831,-1.11378 -1.8626,-3.10217l-2.59016 -0.0832678 0.0324803 -0.627166 -1.7126 1.42087c-1.71083,-0.901182 0.436418,-0.710434 -1.93701,-0.710434 -1.46457,0 -2.76201,1.21713 -3.72461,1.86142 -1.65473,-0.875198 -3.72461,-1.74685 -3.72461,-4.34292 0,-0.840355 0.670867,-0.344882 1.24134,-2.48209l-1.24134 0 0 1.24134 -2.59784 2.9941 -4.84843 0.742323 -2.73957 -4.86851 -2.89488 1.03642 -2.89725 -3.13524c-0.161221,9.04076 -5.58898,1.07126 -8.85178,-1.1126l-3.72461 4.34351 -1.8626 0 -8.69115 0.11811c-1.77047,-2.7626 -0.80256,-4.16693 -4.34469,-4.46162l1.84547 0.708662 0.017126 1.77343c0,2.06339 -1.11437,1.81713 -3.10394,1.86142l0.51378 -0.515552 -4.04351 -4.02284c-2.14429,1.62284 -1.1498,2.67697 -3.29823,2.67697l-0.62067 0c-1.90453,0 -2.68406,-1.53071 -3.10394,-3.10217 -2.63504,0.703347 -1.08602,1.24075 -3.10394,1.24075 -1.10492,0 -1.0187,-0.930119 -1.24134,-1.86142l-1.24134 0 -0.747638 3.07087 -4.23721 -0.419882 1.51358 -3.77953 -1.49528 -0.112205 0 -1.24075 -2.48268 -13.0293 -1.24665 11.788 -1.23662 0.000590552 0 -11.1679c0,-2.13898 0.459449,-2.40236 0.62067,-4.34292l-3.54449 13.8319 -1.03819 -0.17126 -0.534449 -11.1721 -1.49764 2.01024 -0.751772 -5.83406 -0.702756 0.0938977 0 17.3723 -0.62067 0 -2.44075 -11.798 -1.53248 2.38465 -0.992717 0.10689 -1.19469 -8.18032 -1.25906 3.84331 -1.36417 -0.347244 -0.6313 0.237992c0.659646,0.902953 2.58662,4.06418 2.58662,5.06693l0 6.20434 -0.648426 0.446457 -10.7557 -15.6053 -0.922442 0.565158 4.87737 9.01005c2.69705,3.10099 4.09666,8.99587 1.8626,13.6494l-0.790749 0.250394 -2.43071 -7.65886 -4.84843 4.3063 0 140.838 999.901 -0.0011811 -0.0011811 -146.408c-0.0153543,-0.00413386 -0.073819,-0.00531496 -0.104528,-0.00826772 -0.200197,-0.758268 -0.0561024,-6.49666 0.170079,-8.46792 0.097441,-0.849213 1.72087,-9.65434 0.857481,-8.57481 -1.65177,2.06634 -3.64075,5.63682 -5.71654,8.28898 -5.16792,6.60414 -5.89607,-8.61024 -5.14489,-8.86064 -2.01555,2.6876 -2.97284,15.1742 -7.71733,15.7205 -3.02599,0.348425 -1.42913,-12.8717 -1.42913,-15.1488 -0.956103,1.27441 -8.02205,22.2396 -10.0039,16.2921 -3.33366,-10.0016 -2.97461,6.53327 -4.85906,-5.71654 -1.11024,-7.22067 -2.73484,0.788386 -6.28819,3.42992 -5.92441,4.40552 -5.29725,-12.8947 -4.57323,-15.7205 0.336024,-1.31102 -11.6043,26.801 -16.578,17.7213 -1.16043,-2.11949 0.537993,-13.7085 2.28662,-14.2913l-12.2906 17.1496c-3.99803,5.57835 0.617126,-9.9443 2.00079,-12.2906 2.63032,-4.46103 -15.7039,18.1164 -16.0063,12.8622 -0.457087,-7.94528 12.2587,-22.9931 11.4331,-22.5803 -4.16103,2.07992 -6.39508,7.22067 -8.86064,11.1473 -1.22776,1.95473 -7.47638,11.674 -10.2898,8.86064 -4.65945,-4.65945 -5.18918,2.24232 -5.71654,1.71496 -0.837993,-0.837993 -0.26811,-4.00985 -2.00079,-3.1441 -1.4374,0.718701 -2.67166,4.16398 -4.00158,2.00079 -0.0413386,-0.0667323 -5.54528,-5.22993 -6.57402,-4.57323 -2.26418,1.44685 -5.71654,8.27186 -5.71654,1.71496 0,-1.79646 2.62382,-15.2994 0.285827,-10.8614 -1.62343,3.08032 -7.60453,16.2124 -11.1473,16.578 -4.03111,0.416339 -0.285827,-10.0541 -0.285827,-12.0047 0,-0.953741 -2.82638,3.83859 -3.1441,4.2874 -1.28504,1.81299 -7.4315,9.97796 -7.4315,3.42992 0,-7.24607 -3.29941,1.33819 -5.43071,3.71575 -3.67382,4.09666 0.879331,-7.05709 -4.2874,-2.28662 -4.99961,4.61516 -5.01437,7.05532 -6.57402,0.285827 -0.669686,-2.9061 -9.73347,10.9512 -10.2898,3.1441 -0.647245,-9.07737 18.949,-24.8953 13.7197,-20.2937l-21.437 18.8646c-7.28623,6.41162 -3.80256,-3.96614 -10.2898,0.857481 -8.24469,6.12934 4.32225,-13.7799 -6.28819,-2.28662 -9.83209,10.6512 3.1441,-9.14587 3.1441,-11.7189 -4.07303,5.43071 -12.5959,20.2837 -20.0002,20.0569 0,-2.29311 0.315945,-3.01181 1.24134,-4.34292l5.96103 -15.9874 -0.771851 -0.338977 -1.95886 3.97973 0.588189 -3.76359c-3.91831,5.47973 -4.76457,16.5165 -10.6465,20.4532l-0.638386 -0.168898 4.888 -18.4695 -5.49154 11.814c-1.38071,2.60847 -3.32244,8.30257 -6.82796,8.68583l3.72461 -8.68583 4.93996 -15.939 -0.832087 -0.276378 -2.49744 7.03938 0.39626 -9.42343 -0.765355 -0.0135827c0,8.63505 -5.84115,23.5246 -10.5532,26.6782l-0.754725 -0.248622 6.01831 -18.2664 -0.611812 -0.281693 -2.25355 3.85689 -2.26358 -1.4061c-0.871064,3.37441 -0.474213,5.51752 -3.85866,5.79863l-2.05276 5.74666 -0.430512 -11.3303 -6.78898 15.1583 -0.659646 -0.26811c0,-7.72382 2.49567,-11.7957 5.36221,-16.976 2.59016,-4.68189 9.49489,-8.10355 11.3976,-10.9435l-5.50394 1.54784c-2.47559,3.26457 -5.25119,6.19784 -8.02619,10.3665 -1.52362,2.28839 -6.0502,10.0211 -7.57501,11.0415 0,-4.08366 1.53721,-9.57579 2.83583,-12.6756 1.13445,-2.70709 1.5939,-2.84233 3.12343,-4.9441 0.574016,-0.788977 1.02874,-1.63406 1.46575,-2.25768 0.757678,-1.08071 -0.375,0.191339 0.808465,-1.05354 0.345473,-0.36378 0.525591,0.124016 0.69567,-0.545079 0.0496063,-0.19311 0.487796,-0.132874 0.382087,-0.239173l-0.517323 -0.723426c-5.06457,7.50827 -15.3632,17.6427 -15.6225,29.2636l-1.7876 1.3311 1.7876 -13.1191 0 -1.86142c-5.66634,3.79252 -3.23563,14.3864 -7.44922,15.5108l-0.786024 -5.56122 -2.22166 -1.99016 -1.95827 0.726379 0 3.10217 -1.95236 -0.073819 0.046063 0.810237 -1.81831 -0.736418 0 -0.620079 -2.61378 -2.92796 -0.489567 0.445866 0 3.10217c0,4.06004 -2.39587,2.91614 -2.48327,6.82501l-6.19193 -0.734646c-0.113976,0.100394 -1.26437,0.571654 -1.87795,0.734646l0 -1.86142c-6.49016,-0.539764 -1.43622,-2.08524 -6.20729,-2.4815l0 1.86083 -1.24134 0c0.750001,1.11969 1.24134,1.09075 1.24134,2.48209 0,1.42973 -0.431693,1.86083 -1.86201,1.86083 -1.43268,0 -1.52776,-2.63622 -2.13366,-3.45118 -1.90807,-2.56477 -1.77697,1.19823 -2.83288,-2.75256l-1.28799 1.83484 -3.74941 1.07185 -4.27323 0.194882 1.3311 1.78701 -7.56556 -0.94193 -1.76103 1.10669 -3.688 -1.63406 -0.111024 2.16437 -6.82855 0c-2.02205,0 -2.39351,-1.76103 -3.10335,-3.10217l-1.7876 1.3311 -2.49095 -2.62677 -0.0667323 3.15709c-2.40414,1.27146 -4.73268,1.53662 -4.96654,4.34292l-1.86201 0 -0.587008 -1.87441 2.44902 0.0129921 -1.55138 -2.17146 -0.31063 -2.17146c0,-1.39075 -0.491339,-1.36181 -1.24134,-2.4815l0.675001 -4.33288 -1.29567 -0.0106299 -0.962599 3.19547 0.341339 -5.0563 0.62126 -3.10217c0.489567,-5.8813 4.28032,-7.08249 4.32697,-16.1492 0.0401575,-7.69548 4.64469,-7.68012 7.46694,-13.011l4.34528 0 2.79331 -2.83937 3.64666 -1.63051c-0.745867,-2.69528 -2.09469,-4.83426 -2.09469,-6.69804 0,-0.156496 2.48858,-5.27953 2.50099,-8.66871 0.0218504,-5.97225 1.84429,-5.55296 1.84429,-8.70355 0,-5.09056 -4.76339,-4.45926 -6.92658,-8.5878 -2.20335,-4.20591 -4.67894,-3.70394 -9.00532,-5.88957 -4.10256,-2.07225 -16.8585,-9.09863 -21.313,-9.09863 -0.948426,-4.06831 -19.4014,-16.0246 -24.2091,-16.1315l0 -2.4815c0,-1.49173 -1.0063,-1.82421 -1.8626,-3.10217l-14.3575 -3.42874c0.936615,-1.57264 1.94232,-1.90453 1.94232,-3.39626 0,-1.42795 -2.6374,-1.82303 -4.34528,-1.86142l2.8565 -7.54489 0.247441 -3.00236c1.56851,-1.05 4.34528,-5.28544 4.34528,-7.44508 0,-5.52166 3.63189,-13.7126 1.75453,-22.8484 -0.693898,-3.37796 -11.3374,-11.8955 -14.7904,-11.8955 -6.73111,0 -16.6683,0.9313 -19.2354,4.97067 -2.18386,3.43583 -2.9817,2.18681 -5.07284,6.71812 -1.03642,2.24587 -2.19862,6.03485 -3.6254,8.16497 0,4.55433 -1.95473,7.26851 -1.8626,8.06516l0.741142 7.4315 -2.59843 -1.23425 1.04173 3.80138 -3.00532 -1.80236 0.0962599 3.59233 2.97284 1.5189 -2.23996 2.34449 4.83071 1.80591 -0.712796 1.7315 -9.18249 -0.720473 2.03622 4.39784c-5.22874,0.201969 -7.24489,3.12992 -9.95375,5.83878 -2.79921,2.79803 -6.06201,3.41162 -9.59351,5.30197 -3.86693,2.06988 -13.5396,11.6593 -13.5396,16.2478l0 8.06575c-1.38366,0.369095 -1.8626,0.144685 -1.8626,1.86083 0,0.329528 0.894095,1.36181 1.24193,1.86142 -3.86103,5.7626 -6.20788,14.5984 -6.20788,24.1967l0 4.96359c0,5.85886 3.98622,8.47264 6.20788,11.788l-1.48996 13.0016c-0.120473,3.32362 1.75571,9.73879 2.73189,11.8152 1.37185,2.91673 1.63347,8.14725 2.48268,11.7892l1.92874 5.56477 -5.93268 4.73268 -0.341929 -2.23229c0,-1.02461 3.18485,-5.36044 -1.11201,-3.07028 -1.8691,0.996851 -2.33268,2.57717 -3.85394,3.69095l-2.22461 -2.88603 -0.879331 -0.216142 0 1.86142c0,2.06339 -1.11437,1.81654 -3.10335,1.86083l0 -2.4815c0,-2.74725 1.61988,-6.35847 3.10335,-7.44508l2.74016 -7.33111 -0.625394 -0.463583 -9.96556 10.4841 -0.574607 -0.323032 2.97166 -9.14824 -6.34016 9.88406 -1.69488 4.40906 -2.04272 -0.65256c-0.132874,1.71791 0.0277559,2.44784 -1.84902,2.44784 -1.45335,0 -2.48327,-1.02933 -2.48327,-2.4815l0 -1.24134 0.62067 -9.3065 3.22559 -7.07363 -0.0183071 -0.474804 -2.37225 2.24114 -0.21437 -5.86004 0.923032 -5.67638 -1.5437 5.05571 -2.05866 6.95906 0.196654 -5.71831zm291.448 18.7748c-0.186614,-0.0478347 -0.315355,-0.0992127 -0.315355,-0.161811l0.315355 0.161811zm-570.952 7.25197l4.06713 1.48288 -4.66122 1.62402 0.594095 -3.10689zm87.0715 -2.4502l-2.48268 0 -1.83662 1.28799 -2.44784 -3.18662c-0.499016,1.91634 -1.01043,5.62087 -3.16477,5.62087 -1.71732,0 -1.49291,-0.478347 -1.8626,-1.86083l-4.34646 0.0377953 0.00177165 2.4437c-3.06437,-0.068504 -3.03544,-0.039567 -3.10394,-3.10217l1.86201 0 0 -1.24075 -1.86201 0 -0.454725 -3.13406c-1.28622,0.78189 -1.25728,1.27264 -2.64921,1.27264l-1.24134 0c-1.67658,0 -1.71142,-0.296457 -3.10394,-0.620079 0.275197,0.572245 1.8626,3.98268 1.8626,4.34292 0,1.95059 -3.30177,2.71418 -4.96654,3.10217l1.8939 -4.95119 -0.357874 -0.546851 -4.72323 2.87835 0.6 -0.494882 -3.38386 -2.75906 -2.02382 1.62047 -2.42362 -1.54547 -0.134055 4.55729c0,2.11949 -2.31792,2.31319 -4.34528,2.48209 -2.37815,-4.95414 -0.780119,-5.09646 -4.96595,-6.82501l0.62067 -6.82441 1.24134 -5.58426 0 -1.86083 1.8626 0 -0.597638 5.58662c0.623623,0.962599 0.799607,1.85847 2.45965,1.85847 1.59213,0 0.0218504,-1.63701 2.48327,-0.62067l6.20729 1.86142 1.24134 0 3.10394 0 1.20886 0.673229 1.89508 -0.673229 11.7945 -1.86142 2.51103 -0.511418 1.70079 1.88504 4.47815 -0.132874 3.10394 -3.10217 7.44922 -1.24075 3.7187 -0.698623 5.59252 -4.88504 3.32894 -7.3506 2.25768 -0.0944883c1.01575,0 1.8626,-0.371457 1.8626,-1.24134 0,-4.74449 -2.48327,-5.99351 -2.48327,-7.44508l0 -8.06516c7.54371,-1.75689 14.0912,-4.18642 17.1845,-10.7439 1.95473,-4.1439 8.33564,-15.3443 7.64528,-20.2778l-3.93307 -30.3721 2.07106 -0.0295276 -0.678544 0.370866 3.99213 7.29922c1.73032,-2.97284 3.51496,-4.81949 3.51496,-8.29016l0 -8.06575c6.5817,0.146457 16.4687,15.9254 20.4845,18.613 -0.422244,-5.07697 -12.6284,-14.299 -15.5185,-18.613l4.33701 -3.11516 4.93996 6.86457 0.034252 3.07559c1.75276,2.61614 8.06989,7.8443 8.06989,9.92658 0,1.71673 -0.478937,1.49232 -1.8626,1.86142 -0.0667323,2.99941 -5.35276,12.1795 -6.47008,17.1095 -1.31102,5.78563 -3.46181,13.1539 -3.46181,19.4959l0 4.96359c0,3.86339 1.10847,6.11871 4.96595,6.20434 0,6.988 3.47658,17.8022 5.58485,22.9577 3.43406,8.39764 6.68623,10.6695 11.1756,17.3705l3.58524 3.9691 -2.3439 0.373819 -1.97658 3.49429 -0.506693 -0.392126c-0.810827,-1.63583 -0.62067,0.510827 -0.62067,-1.86142 0,-0.394488 1.39902,-1.78996 1.8626,-2.4815 -3.36496,-1.55551 -1.29331,1.24075 -4.34528,1.24075 -1.53721,0 -1.82362,-1.98484 -1.8626,-3.72284l-2.48268 0 -0.643111 3.09685 1.26378 0.00531496 0 1.24075 -3.10394 -1.86083 -0.62067 0 -7.54666 -7.34115 -0.523229 0.516142c1.28681,5.51871 2.17028,3.43347 5.14784,6.64312 0.833268,0.89882 4.04528,6.20138 4.16398,7.62697 -5.38996,-0.119882 -3.96851,-3.50256 -6.27225,-6.13997 -2.08583,-2.3876 -4.27559,-2.74075 -6.14351,-6.26871l-4.1817 -2.17855 -3.95788 -17.0374 -1.17106 -0.0177165 0.714567 3.70217 -2.57894 -4.32166 -0.722245 0.516142 0.851575 -0.046063 2.86713 14.3173 -1.12205 0.28937 -2.69823 -8.81044c-4.41319,0.914764 -1.81358,-6.96792 -8.48564,-8.74902l4.51654 12.7606 -0.740552 0.20315 -7.04174 -5.48622 -0.458859 0.588189c2.94981,4.02343 6.20788,2.99528 6.20788,11.7886l1.41024 4.92756c-3.01536,-0.724016 -3.26811,-3.57284 -4.51418,-6.1689 -2.0876,-3.11516 -6.38327,-10.2 -10.5526,-10.5473l3.68091 3.15827c-0.366733,1.70433 -0.57756,1.00453 -0.57756,2.42599 0,0.413977 1.95532,2.31437 2.48327,3.10217l1.20886 0.673229 0.472441 6.1689 -4.70788 1.51772 -1.53366 2.05276 -4.79823 -1.62106 -0.595867 2.99055c-4.4752,-1.1941 2.32795,-3.21496 -3.70217,-3.71693 -0.178347,2.14311 -1.58563,4.34292 -3.72461,4.34292 -3.05788,0 -6.15532,-2.44488 -6.82855,-4.963l-2.93504 4.43741 2.10414 2.02677 -0.543308 0.493701 -1.8626 -1.86142 -2.97047 -0.753544zm-68.9032 -0.62067l-4.26378 -2.0126 -0.0814961 1.39252 1.86201 0 0.298819 0.66378 -4.02756 1.80886 -1.45217 -2.33858 -4.74331 0.154725 -0.00767717 0.951969 -3.72461 0c-1.01575,0 -1.86201,-0.371457 -1.86201,-1.24075 0,-1.31221 0.222047,-0.817914 0.62067,-2.48209l-2.47855 1.24843 -3.70866 -0.765945 -1.51417 -3.18425 0.274607 3.31654 -1.86024 -1.26083c0.298229,1.54725 1.03169,2.50748 -1.26614,2.50748l-3.72402 0c-1.43032,0 -1.8626,-0.431693 -1.8626,-1.86142l0 -0.620079c0,-1.67599 0.296457,-1.71083 0.62067,-3.10217l-1.24134 0 -2.01969 4.61457 -0.572245 -0.243307 -0.647245 -2.47441 -3.66083 -1.0813c2.70945,11.1195 0.937796,6.00886 -4.8939,6.00886l0.590552 -3.72815 -4.20473 1.54902 -1.5626 -4.20118 -1.84784 4.09666 -3.04547 -2.54173 5.10355 -6.9626c2.95984,-4.41792 6.67028,-10.8862 6.82855,-17.9923l4.34528 0c-0.161811,1.94055 -0.62067,2.20394 -0.62067,4.34292 0,5.17855 1.80768,8.88898 6.82796,9.3065l3.72461 1.24075 2.48327 0 2.48268 0.62067 11.7833 0.767127 0.63189 -0.147047c4.40611,0 8.02383,-2.73544 9.9319,-5.58367l3.69508 0.769489 -0.0649607 5.43839 3.825 0.587008c1.11437,-0.719882 1.08543,-1.21122 2.47677,-1.21122l4.34528 0 1.8626 7.44508c1.03287,5.94154 -0.696851,5.02559 -0.696851,5.02559 -4.44508,0.124016 -0.129921,0.558662 -6.75237,0.558662 -1.39193,0 -1.3624,-0.491339 -2.48268,-1.24075 0,-3.58229 0.884056,-4.23071 -1.8626,-4.96359l0 4.96359c0,1.71614 -0.478937,1.49173 -1.86201,1.86083zm249.542 -18.6124c0.161811,1.94055 0.62126,2.20394 0.62126,4.34292l0 1.24075c0,1.19764 -0.195473,1.10433 -0.62126,1.86142 -0.699804,-0.468898 -2.48268,-1.45748 -2.48268,-2.48209 0,-1.81063 0.834449,-3.21733 1.24134,-4.963l1.24134 0zm5.58721 7.44508c0,-1.62343 0.687993,-2.96634 1.4752,-4.10906 0.710434,-1.03051 0.68563,-0.677953 1.39252,-1.71083 0.201969,-0.295276 0.304134,-0.523229 0.457087,-0.784843 0.0986221,-0.167126 0.180118,-1.06004 0.399213,-0.840355l0.724607 0.516733 -3.24154 11.8831 -1.20709 0.00826772 0 -4.963zm-177.561 -8.13662c-0.349607,1.47638 -0.571063,2.55236 -2.45729,2.55236l-1.86201 0 0.0797245 -1.02047 4.23957 -1.53189zm90.6556 2.55236l-0.62067 0.62067 -0.62067 0.620079 -0.62067 0.62067 -1.24134 0 -3.24508 -2.96103c0.261024,-1.57973 2.84528,-11.3923 3.44823,-11.6906 0.798426,-0.39626 3.51555,1.43799 5.11477,1.89095 1.99843,0.566339 4.20237,0.351969 6.47599,0.351969l-1.24134 2.4815 -0.62067 0.62067 -0.62067 0.62067 -2.48327 2.4815 0 0.62067 2.99587 -2.59666 0.35315 2.64567 2.38465 -5.57717 1.72854 0.530315 -0.0129921 -2.44784 1.24134 0 -0.736418 3.25453 -3.01831 14.7319 -1.83189 0.00649607c-1.43032,0 -1.8626,-0.431693 -1.8626,-1.86142 0,-0.144685 1.69961,-6.72697 1.8626,-8.68583 -2.55295,1.8691 -3.5002,8.06516 -5.58721,8.06516 -2.60788,0 -1.71614,-1.83957 -0.879922,-3.32422 0.650197,-1.15394 0.352559,-0.846851 1.32106,-1.8189 0.172441,-0.172441 0.536811,-0.452953 0.673819,-0.56693 0.13937,-0.116929 0.958465,-0.282874 0.747638,-0.493701l-0.517323 -0.724016 -2.58662 2.58484zm-260.095 0c-2.40827,0 -0.112795,-1.14626 -4.34528,-1.24075l2.9687 -2.10177 0.375591 1.66713 1.89803 -2.45374 7.17284 -0.21378 6.21497 0.53563 0.340748 0.641339 -3.34666 2.09351 -1.14803 -2.14075 -0.710434 2.62146 -6.9254 -0.116929 -0.011811 0.708662 -2.48327 0zm273.751 -12.4087c3.91772,-0.911812 6.2941,-4.96359 8.06989,-4.96359 1.49173,0 1.86201,4.38426 1.86201,6.20434l0 2.48209 -0.708071 6.81378 1.50532 -3.25394c0.768898,1.55433 1.06536,1.58917 1.06536,3.26516l0 3.72225c0,1.96299 -1.52658,2.11477 -3.10394,2.4815l0 -3.10217 -0.62067 0 0 3.10217c-1.34469,0.900001 -2.06634,1.86142 -4.34528,1.86142 -2.03799,0 -1.77992,-1.57973 -3.10394,-3.10217l0 3.72284 -3.72402 0 1.3565 -9.29292 1.00217 0.358465 0.744686 -10.2992zm0.301772 15.5864l-1.03937 -4.39075 1.03937 4.39075zm8.30434 -1.94764l0.330118 -2.51988 -0.330118 2.51988zm-267.46 -9.29587l4.35768 0.544489c-0.387402,1.48169 -0.608859,2.55827 -2.49508,2.55827l-1.8626 0 0 -3.10276zm270.648 -5.58367l1.24134 0 4.5437 11.7053 -4.16989 3.66614 -0.373819 -2.9628c0,-3.96437 -1.24134,-4.72146 -1.24134,-8.68583l0 -3.72284zm7.44922 10.5473l-1.11496 -0.0519685 -3.50729 -8.51989c1.47106,0.68504 6.48426,4.05945 6.48426,5.46969 0,0.941339 -1.22067,0.700394 -1.86201,3.10217zm-42.8321 -2.4815c0,-1.98898 4.17343,-5.87894 5.58662,-6.82501 -0.340748,1.46162 -2.41004,9.3065 -3.72461,9.3065 -0.755316,0 -1.86201,-1.28327 -1.86201,-2.4815zm-6.20729 -13.0293c1.09134,-0.523229 4.15985,-1.86083 5.58662,-1.86083 1.33465,0 2.76437,2.45315 3.10394,3.72225l-2.02973 0.975591c1.92815,-0.144685 1.22835,-0.354922 2.6504,-0.354922 0.755316,0 1.86201,1.28327 1.86201,2.4815 0,0.928347 -5.26182,5.57126 -6.20729,6.20434 -1.05591,-0.773032 -2.48327,-2.61437 -2.48327,-4.34292 0,-1.37539 3.13051,-2.06516 4.34528,-3.72284l-4.89508 2.01791 -1.93288 -5.12008zm-72.0077 -1.86083c0,-1.77284 0.195473,-1.13504 1.24193,-1.86142 0.811418,1.63524 0.62067,-0.510827 0.62067,1.86142l0 5.58367c0,2.38878 -0.344292,2.55295 -1.8626,3.10217l0 -8.68583zm121.047 -5.58426c3.1252,0 2.62973,5.28012 5.58662,7.44508l-2.25295 -6.29764 0.287008 -0.630119c1.25728,1.8254 5.69056,4.87264 5.69056,6.92776 0,1.05118 -0.826772,2.3191 -1.24193,3.10217l-2.33386 -3.19193c0.068504,2.70355 1.09252,3.37973 1.09252,5.67402 0,0.902953 -3.12756,4.69311 -3.72461,5.58367l-10.1303 -8.10355 2.02146 -10.5171 5.00552 0.00767717zm-26.0717 4.34292c0,1.01575 -0.372048,1.86142 -1.24193,1.86142 -0.869883,0 -1.24134,-0.84567 -1.24134,-1.86142 0,-1.14036 1.42382,-1.57854 2.48327,-1.86083l0 1.86083zm4.96595 -0.620079c0,1.01516 -0.372048,1.86142 -1.24134,1.86142 -0.869883,0 -1.24193,-0.846261 -1.24193,-1.86142 0,-1.87618 0.730512,-1.71555 2.48327,-1.86142l0 1.86142zm31.0376 1.24075c-0.873426,0 -3.23622,-2.99351 -3.72461,-3.72284l4.96595 0 0 1.86142c0,1.01575 -0.371457,1.86142 -1.24134,1.86142zm-42.8321 -3.72284c0.0141732,-0.0129921 1.72677,-1.24075 1.86201,-1.24075 1.10551,0 1.0187,0.930709 1.24193,1.86142l-1.24193 0 1.21063 0.713386 0.0312992 1.14803 -3.09803 0.64252 -0.00590552 -3.12461zm-15.5185 -3.72225c2.29252,0 4.49587,5.42894 4.96595,7.44508l-4.94823 0.726379c-1.45453,0.136417 -1.88032,-5.32796 -1.88032,-6.93071 0,-0.869292 0.846261,-1.24075 1.8626,-1.24075zm14.8978 1.24075c0,1.42973 -0.431693,1.86142 -1.86201,1.86142 -0.0838583,0 -1.22953,-0.61063 -1.24193,-0.62067 0.600591,-2.57421 0.366733,-2.87421 3.10394,-3.10217l0 1.86142zm46.5491 -4.41024l0.00708662 1.92874c0,1.90453 -0.574607,3.72225 -2.48268,3.72225l-4.96595 0c-2.05335,0 -3.88288,-2.61201 -4.34469,-4.3376l11.7862 -1.31339zm150.229 1.30807c0.46004,-5.52402 4.73327,-10.64 7.92048,-13.7988 3.94548,-3.91122 4.85493,-9.59233 8.83997,-12.2593 6.97914,0 22.0683,1.81713 24.8297,5.58367 -6.62422,1.54252 -14.4278,11.1679 -19.2431,11.1679l-0.62067 0c-1.89095,0 -2.27067,-0.281693 -3.72461,-0.620079l-5.45788 5.09469c-1.58327,-0.470079 -1.96299,-0.751772 -3.85335,-0.751772 -2.4502,0 -3.2439,1.66004 -3.72461,3.72225l-3.70394 -0.714567 -1.26201 2.57599zm-201.744 -1.86142c0,-1.01516 0.371457,-1.86142 1.24134,-1.86142 0.869883,0 1.24193,0.846261 1.24193,1.86142 0,1.87618 -0.730512,1.71555 -2.48327,1.86142l0 -1.86142zm-70.1014 -17.3156c2.64685,1.7439 4.30158,5.32914 4.30158,9.87048 0,3.8817 -3.44173,6.20434 -7.44863,6.20434l-2.48327 0 -1.71142 -10.3541 7.34174 -5.72067zm107.346 4.28681l-1.86201 -0.709253 0 -2.39292 2.48268 1.24075 0.62126 -0.62067 0.0968505 -10.5053 -1.76457 3.75237c0.276378,0.910631 0.425788,0.819095 0.425788,2.41004l0 3.10217 -2.48268 0 0 -1.86142c0,-2.29547 -0.282284,-0.39567 0.762993,-1.71851 0.426969,-0.540945 0.496654,0.302362 0.705119,-0.536811 0.0484252,-0.196063 0.501378,-0.119291 0.393898,-0.226181l-0.517323 -0.724016 -2.37225 2.24114c-0.505512,-3.77303 -3.31772,-6.21437 -3.31772,-7.72146l0 -1.24075c0,-1.77284 0.194882,-1.13504 1.24134,-1.86142l-0.992717 -2.57362 -2.05984 4.22481 -1.1628 -0.452363 1.22185 -14.2181 -0.731103 -0.00944883 -1.43858 12.3821 -1.90571 -2.94095 -0.473032 1.0748c-0.99567,-0.222638 -6.11457,-2.11949 -6.11457,-3.07087 0,-1.79055 1.16516,-1.54547 1.24134,-4.96359l-2.1189 3.89469c-1.22303,-3.85866 -5.32973,-5.71182 -5.32973,-8.2376l0 -0.62067c0,-2.17855 2.75433,-2.4815 4.96595,-2.4815 1.16043,0 1.74744,2.59607 1.86201,2.4815l0.724016 -0.516733c-1.77343,-2.73425 -0.575197,-3.13996 2.37992,-3.20551l-1.13563 4.3754 -1.34764 0.277559 0 3.41221c3.81378,2.10059 1.79528,3.79902 4.96595,7.44508l-3.91772 -9.84686 4.57973 -6.70808 0.585237 0.401575 3.06614 0.769489 0.0318898 6.07796 0.62067 0 0.47067 -5.60138 3.85394 0.731693 -2.72244 14.7425 0.682678 0.148228 3.07973 -13.7935c1.82658,0.898229 4.56792,1.54252 4.56792,3.77244l0 5.58367c0,1.96536 -5.96693,4.80296 -7.44922,6.82441l8.65394 -6.25158 -0.119291 -5.54469c1.56201,0.383859 2.63918,0.604725 2.63918,2.49036 0,1.28563 0.26811,-0.0389764 -0.787205,1.07421 -0.142913,0.150591 -0.597638,0.756497 -0.693898,0.547441 -0.0490158,-0.106299 -0.487796,0.133465 -0.381496,0.239173l0.517323 0.724016 2.51634 -2.06988 3.2126 5.66634 -7.97835 8.82757 0.387402 0.605315 7.93583 -9.00237 2.04567 4.57796 -11.123 13.0039 4.34882 -3.71988 7.06772 -7.21654c0.885827,2.55886 1.62225,2.48091 1.62225,4.73504l0 0.620079c0,2.27776 -0.961418,2.99941 -1.86201,4.34292l2.42658 -1.3128 0.0561024 3.17422 -3.10335 -1.24075 -0.62067 0.62067 -1.24134 1.86083 -0.62126 0.62067 -2.13012 2.89961c2.53878,-1.31752 3.20138,-4.14036 5.23406,-4.14036l0.62067 0c1.45335,0 2.48327,1.02933 2.48327,2.4815l0 3.72284 -8.78977 -1.36772 -2.37284 0.211417 1.23839 1.77165 1.10906 -1.36004c2.16673,0.6 8.81516,0.704528 8.81516,3.22618l0 4.34292c0,2.75729 -8.89489,2.48209 -11.7945,2.48209 0.750001,-1.11969 1.24134,-1.09075 1.24134,-2.48209 0,-0.0555119 -1.62992,-2.66339 -1.86201,-3.10158l1.11732 -1.36536 -0.393307 -0.6 -1.82835 1.56201 -1.28563 -4.58622 3.01063 0.0259843 0 -0.62067 -3.72461 0 0 -2.4815zm-30.1542 -8.66635l2.22047 -0.0200788c-1.08012,2.98288 -0.161221,-0.500788 -1.24134,2.48209l-1.16457 0.00590552 0.185433 -2.46792zm-7.09075 -6.84449c-1.14095,0 -1.57973,-1.42323 -1.86201,-2.48209l3.28996 1.52953c-1.71555,1.19055 -0.0283465,0.95256 -1.42795,0.95256zm1.37717 -2.51752c-1.05236,-0.209055 -1.99784,-0.0750001 -1.99784,-1.20532 0,-0.836812 0.688583,-0.930709 1.24134,-1.24075l0.756497 2.44606zm0.484843 -1.20532c0,-1.19764 -0.194882,-1.10433 -0.62067,-1.86142 2.19567,0.586418 1.91398,0.661418 2.48327,3.10217l-1.81772 0.736418 -0.0448819 -1.97717zm-54.8711 6.76654l-0.375591 6.2628c0,1.75866 -2.51339,7.79883 -3.72461,8.68583 -0.336614,-0.246851 -6.82796,-13.2667 -6.82796,-13.6494 0,-0.644292 7.44863,-6.1252 7.44863,-15.5108 0,-0.170079 -0.427559,-1.13386 -0.62067,-1.86142l-3.37855 0.4063 3.81674 -4.89154 3.66201 20.5583zm-0.996261 -47.0947c0,-1.19764 0.195473,-1.10433 0.62067,-1.86083l1.45925 1.72382 0.761812 -1.81595 3.38091 9.39272 -4.19705 -2.17264 -0.136417 -5.26772 -0.647835 0.000590552 0 2.48209 -1.24134 0 0 -2.48209zm27.9337 11.7886c-1.03996,-1.55197 -7.44922,-9.97146 -7.44922,-11.1679 0,-2.08229 3.09862,-0.62067 4.96654,-0.62067l4.34528 0 6.00591 18.4742 -0.634843 0.259843 -3.95315 -7.04469 -3.28051 0.0992127zm15.5191 0.620079c0,1.77047 -4.76044,5.41241 -6.82855,5.58426 0,-3.19784 -2.1561,-8.61792 -3.02421,-11.2471 -0.947835,-2.87303 -4.89804,-8.6067 -1.32106,-8.6067 1.66536,0 11.1738,13.2768 11.1738,14.2695zm-34.1416 -4.963c-2.80276,0 -4.36536,-6.72934 -4.96595,-9.3065 3.00473,0.801969 2.0752,2.4815 4.34528,2.4815 1.3128,0 0.818505,-0.222047 2.48268,-0.62067l3.11634 4.95591c-1.0187,1.50945 -1.83071,2.48977 -4.35768,2.48977l-0.62067 0zm-37.8662 -50.8754c0,2.32855 2.27658,1.86673 3.10394,4.963l3.72461 0 1.52658 6.30945c-3.45118,-0.419882 -3.70866,-2.07166 -4.00985,-5.68878 -3.19016,-0.265158 -4.09134,-2.73189 -6.0378,-4.51241 -2.50748,-2.2937 -4.68957,-1.95 -6.98682,-3.37914l10.5502 -0.657875c-1.0128,2.63799 -1.87087,0.338977 -1.87087,2.96575zm-22.3471 -1.86142l-3.10335 0.62067c-2.22402,-1.17638 -2.83642,-1.1315 -3.10394,-4.34351l3.91418 2.88957 2.29311 0.212599 0 0.62067zm13.6571 -1.86142c0.764764,-0.664371 6.25394,-3.10217 7.44863,-3.10217 1.0063,0 3.18839,1.7504 3.72461,2.48209l-11.1732 0.620079zm-16.7604 -3.10217c5.44725,-0.121063 9.0815,-4.963 12.4152,-4.963l0.62067 0c1.5,0 8.41418,3.56398 9.31123,4.34292 -5.36752,1.24961 -7.00158,3.10217 -14.2772,3.10217l-6.20788 0c-1.87677,0 -1.71614,-0.730512 -1.86201,-2.48209zm38.4868 1.24075c-2.40059,-0.199606 -4.4439,-3.62717 -4.96654,-5.58367 2.21634,0.184252 4.47815,3.75827 4.96654,5.58367zm23.5884 -11.1673c-1.18287,0 -4.01752,-3.11575 -4.34528,-4.34351l3.72461 0c1.42973,0 1.86201,0.432284 1.86201,1.86142l0 0.62067c0,1.01516 -0.371457,1.86142 -1.24134,1.86142zm141.531 153.246l0 4.96359"/>
 </g>
</svg>
